<svg width="44" height="44" viewBox="0 0 44 44" xmlns="http://www.w3.org/2000/svg"><g fill="none" fill-rule="evenodd"><path fill="#F2F2F2" d="M-228-35h1440V77H-228z"/><path d="M22 44c12.15 0 22-9.85 22-22S34.15 0 22 0 0 9.85 0 22s9.85 22 22 22z" fill="#FFF"/><path d="M22.49 32.73c.19 0 .38-.073.528-.22l8.744-8.657c.295-.29.297-.766.005-1.06-.29-.294-.767-.297-1.06-.005l-7.474 7.4V12.75c0-.415-.336-.75-.75-.75-.415 0-.75.335-.75.75v17.422l-7.455-7.384c-.293-.292-.768-.29-1.06.005-.293.294-.29.77.005 1.06l8.74 8.658c.145.147.337.22.528.22z" fill="#5B5B58"/></g></svg>