<svg width="21" height="21" viewBox="0 0 21 21" xmlns="http://www.w3.org/2000/svg" xmlns:sketch="http://www.bohemiancoding.com/sketch/ns"><title>CERRAR</title><desc>Created with Sketch.</desc><path d="M11.055 10.5l9.83-9.83c.153-.153.153-.402 0-.555-.153-.153-.402-.153-.556 0l-9.829 9.829-9.83-9.829c-.153-.153-.402-.153-.555 0-.153.153-.153.402 0 .555l9.829 9.83-9.829 9.829c-.153.153-.153.402 0 .555.076.077.177.115.278.115.101 0 .201-.038.278-.115l9.83-9.829 9.829 9.829c.077.077.177.115.278.115.101 0 .201-.038.278-.115.153-.153.153-.402 0-.555l-9.83-9.829" sketch:type="MSShapeGroup" fill="#5B5B58"/></svg>