<?xml version="1.0" encoding="utf-8"?>
<!-- Generator: Adobe Illustrator 19.0.0, SVG Export Plug-In . SVG Version: 6.00 Build 0)  -->
<svg version="1.1" id="Capa_1" xmlns="http://www.w3.org/2000/svg" xmlns:xlink="http://www.w3.org/1999/xlink" x="0px" y="0px"
	 viewBox="-358 818.2 181.2 165.8" style="enable-background:new -358 818.2 181.2 165.8;" xml:space="preserve">
<style type="text/css">
	.st0{fill:none;stroke:#777777;stroke-miterlimit:10;}
	.st1{fill:#777777;}
	.st2{display:none;}
	.st3{display:inline;}
	.st4{fill:#BBBDBF;}
	.st5{fill:none;stroke:#BBBDBF;stroke-width:3;stroke-linecap:round;stroke-miterlimit:10;}
</style>
<g id="chair">
	<g>
		<g>
			<g>
				<line class="st0" x1="-195.3" y1="847.6" x2="-195.3" y2="943.1"/>
				<g>
					<polygon class="st1" points="-195.3,840.6 -199.4,850.5 -195.3,848.2 -191.3,850.5 					"/>
				</g>
				<g>
					<polygon class="st1" points="-195.3,950.2 -199.4,940.2 -195.3,942.6 -191.3,940.2 					"/>
				</g>
			</g>
		</g>
	</g>
</g>
<g id="chair_1_">
	<g>
		<g>
			<g>
				<line class="st0" x1="-328.8" y1="961.1" x2="-216.9" y2="961.1"/>
				<g>
					<polygon class="st1" points="-337.1,961.1 -325.4,965.2 -328.2,961.1 -325.4,957 					"/>
				</g>
				<g>
					<polygon class="st1" points="-208.7,961.1 -220.3,965.2 -217.6,961.1 -220.3,957 					"/>
				</g>
			</g>
		</g>
	</g>
</g>
<g id="table" class="st2">
	<g class="st3">
		<g>
			<g>
				<line class="st0" x1="-203.5" y1="865.7" x2="-203.5" y2="896.7"/>
				<g>
					<polygon class="st1" points="-203.5,858.6 -207.6,868.6 -203.5,866.2 -199.5,868.6 					"/>
				</g>
				<g>
					<polygon class="st1" points="-203.5,903.8 -207.6,893.8 -203.5,896.2 -199.5,893.8 					"/>
				</g>
			</g>
		</g>
		<g>
			<g>
				<line class="st0" x1="-290.2" y1="822.2" x2="-325.2" y2="842.4"/>
				<g>
					<polygon class="st1" points="-284.1,818.7 -294.8,820.2 -290.7,822.5 -290.7,827.2 					"/>
				</g>
				<g>
					<polygon class="st1" points="-331.3,846 -324.7,837.5 -324.7,842.1 -320.6,844.5 					"/>
				</g>
			</g>
		</g>
		<g>
			<g>
				<line class="st0" x1="-254.4" y1="821.8" x2="-213.7" y2="845.2"/>
				<g>
					<polygon class="st1" points="-260.5,818.2 -253.9,826.7 -254,822 -249.9,819.7 					"/>
				</g>
				<g>
					<polygon class="st1" points="-207.6,848.8 -218.3,847.3 -214.2,845 -214.2,840.3 					"/>
				</g>
			</g>
		</g>
		<path class="st4" d="M-216.1,859C-216.1,859-216.1,858.9-216.1,859c0-0.1,0-0.1,0-0.1c0,0,0,0,0,0c0,0,0,0,0-0.1c0,0,0,0,0-0.1
			c0,0,0,0,0,0c0,0,0,0,0,0c0,0,0,0,0,0c0,0,0,0,0,0c0,0,0,0,0-0.1c0,0,0,0,0,0c0,0,0,0,0-0.1c0,0,0,0,0,0c0,0,0,0,0,0
			c0,0,0,0,0-0.1c0,0,0,0,0,0c0,0,0,0,0,0c0,0,0,0,0,0c0,0,0,0,0,0c0,0,0,0,0,0c0,0,0,0,0,0c0,0,0,0,0,0c0,0,0,0,0,0c0,0,0,0,0,0
			s0,0,0,0c0,0,0,0,0,0s0,0,0,0c0,0,0,0,0,0c0,0,0,0-0.1,0c0,0,0,0,0,0c0,0,0,0-0.1,0c0,0,0,0-0.1,0l0,0l-55.3-32c0,0,0,0,0,0
			c0,0-0.1,0-0.1,0c0,0,0,0-0.1,0c0,0,0,0-0.1,0c0,0-0.1,0-0.1,0c0,0,0,0-0.1,0c0,0-0.1,0-0.1,0c0,0,0,0-0.1,0c0,0-0.1,0-0.1,0
			c0,0,0,0-0.1,0c0,0-0.1,0-0.1,0s0,0-0.1,0c0,0,0,0-0.1,0c0,0-0.1,0-0.1,0c0,0,0,0-0.1,0c0,0-0.1,0-0.1,0c0,0,0,0-0.1,0
			s-0.1,0-0.1,0c0,0-0.1,0-0.1,0c0,0-0.1,0-0.1,0c0,0-0.1,0-0.1,0c0,0,0,0,0,0l-45.5,26.2c-0.6,0.2-1.1,0.8-1.1,1.5v41.6
			c0,0.9,0.7,1.6,1.6,1.6c0.9,0,1.6-0.7,1.6-1.6v-38.8l52.1,30.1v40.8c0,0.9,0.7,1.6,1.6,1.6c0.9,0,1.6-0.7,1.6-1.6v-40.8l42.6-24.6
			v38.4c0,0.9,0.7,1.6,1.6,1.6s1.6-0.7,1.6-1.6V859C-216.1,859-216.1,859-216.1,859z M-263.5,883.6l-52.1-30.1l42.6-24.6l52.1,30.1
			L-263.5,883.6z"/>
	</g>
</g>
<g>
	<line class="st5" x1="-208.7" y1="840.6" x2="-208.7" y2="946.2"/>
	<line class="st5" x1="-337.1" y1="840.6" x2="-337.1" y2="946.2"/>
	<line class="st5" x1="-337.1" y1="840.6" x2="-208.7" y2="840.6"/>
	<line class="st5" x1="-337.1" y1="946.5" x2="-208.7" y2="946.5"/>
</g>
<g>
	<line class="st5" x1="-218.6" y1="849.9" x2="-218.6" y2="937"/>
	<line class="st5" x1="-327.1" y1="849.9" x2="-327.1" y2="937"/>
	<line class="st5" x1="-327.1" y1="849.9" x2="-218.6" y2="849.9"/>
	<line class="st5" x1="-327.1" y1="937.2" x2="-218.6" y2="937.2"/>
</g>
</svg>
