<?xml version="1.0" encoding="utf-8"?>
<!-- Generator: Adobe Illustrator 16.0.0, SVG Export Plug-In . SVG Version: 6.00 Build 0)  -->
<!DOCTYPE svg PUBLIC "-//W3C//DTD SVG 1.1//EN" "http://www.w3.org/Graphics/SVG/1.1/DTD/svg11.dtd">
<svg version="1.1" xmlns="http://www.w3.org/2000/svg" xmlns:xlink="http://www.w3.org/1999/xlink" x="0px" y="0px"
	 width="181.19px" height="165.76px" viewBox="0 0 181.19 165.76" enable-background="new 0 0 181.19 165.76" xml:space="preserve">
<g id="chair">
	<g>
		<g>
			<g>
				<line fill="none" stroke="#777777" stroke-miterlimit="10" x1="30.9" y1="83.59" x2="30.9" y2="128.22"/>
				<g>
					<polygon fill="#777777" points="30.9,76.53 26.83,86.48 30.9,84.12 34.96,86.48 					"/>
				</g>
				<g>
					<polygon fill="#777777" points="30.9,135.28 26.83,125.33 30.9,127.7 34.96,125.33 					"/>
				</g>
			</g>
		</g>
		<g>
			<g>
				<line fill="none" stroke="#777777" stroke-miterlimit="10" x1="152.68" y1="29.41" x2="152.68" y2="124.89"/>
				<g>
					<polygon fill="#777777" points="152.68,22.35 148.61,32.3 152.68,29.94 156.74,32.3 					"/>
				</g>
				<g>
					<polygon fill="#777777" points="152.68,131.95 148.61,122 152.68,124.36 156.74,122 					"/>
				</g>
			</g>
		</g>
		<g>
			<g>
				<line fill="none" stroke="#777777" stroke-miterlimit="10" x1="76.24" y1="40.98" x2="34.63" y2="65"/>
				<g>
					<polygon fill="#777777" points="82.36,37.45 71.71,38.9 75.79,41.24 75.77,45.94 					"/>
				</g>
				<g>
					<polygon fill="#777777" points="28.52,68.53 35.1,60.04 35.09,64.74 39.17,67.08 					"/>
				</g>
			</g>
		</g>
		<g>
			<g>
				<line fill="none" stroke="#777777" stroke-miterlimit="10" x1="46.13" y1="145.77" x2="74.62" y2="162.23"/>
				<g>
					<polygon fill="#777777" points="40.01,142.24 46.59,150.74 46.58,146.04 50.66,143.7 					"/>
				</g>
				<g>
					<polygon fill="#777777" points="80.74,165.76 70.09,164.3 74.17,161.96 74.15,157.26 					"/>
				</g>
			</g>
		</g>
		<path fill="#BBBDBF" d="M133.42,22.06c0-0.03,0-0.06,0-0.09c0-0.02,0-0.05-0.01-0.07c0-0.02-0.01-0.05-0.01-0.07
			c0-0.03-0.01-0.05-0.02-0.08c0-0.02-0.01-0.04-0.02-0.06c-0.01-0.03-0.02-0.05-0.03-0.08c-0.01-0.02-0.01-0.04-0.02-0.05
			c-0.01-0.03-0.02-0.05-0.03-0.08c-0.01-0.02-0.02-0.04-0.03-0.06c-0.01-0.02-0.02-0.04-0.04-0.06c-0.01-0.02-0.02-0.04-0.04-0.06
			c-0.01-0.02-0.02-0.04-0.04-0.05c-0.02-0.02-0.03-0.04-0.05-0.06c-0.01-0.02-0.02-0.03-0.04-0.05c-0.02-0.02-0.04-0.04-0.05-0.06
			c-0.01-0.01-0.03-0.03-0.04-0.04c-0.02-0.02-0.04-0.04-0.06-0.05c-0.02-0.02-0.04-0.03-0.06-0.05c-0.02-0.01-0.04-0.03-0.05-0.04
			c-0.02-0.02-0.05-0.03-0.08-0.05c-0.01-0.01-0.02-0.01-0.03-0.02L96.95,0.2c0,0-0.01,0-0.01-0.01c-0.03-0.02-0.06-0.03-0.09-0.04
			c-0.01-0.01-0.03-0.02-0.04-0.02c-0.03-0.01-0.05-0.02-0.08-0.03c-0.02-0.01-0.04-0.01-0.06-0.02c-0.02-0.01-0.05-0.01-0.07-0.02
			c-0.02-0.01-0.05-0.01-0.07-0.02c-0.02,0-0.04-0.01-0.06-0.01c-0.03-0.01-0.06-0.01-0.09-0.01c-0.02,0-0.03,0-0.05,0
			c-0.03,0-0.07,0-0.1,0c0,0-0.01,0-0.01,0c-0.01,0-0.02,0-0.04,0c-0.03,0-0.06,0-0.09,0c-0.02,0-0.04,0-0.06,0.01
			c-0.03,0-0.05,0.01-0.08,0.01c-0.02,0-0.05,0.01-0.07,0.02c-0.02,0.01-0.04,0.01-0.06,0.02c-0.03,0.01-0.05,0.02-0.08,0.02
			C95.72,0.09,95.7,0.1,95.68,0.1c-0.02,0.01-0.05,0.02-0.07,0.03c-0.02,0.01-0.04,0.02-0.06,0.03c-0.02,0.01-0.04,0.02-0.06,0.03
			c-0.02,0.01-0.04,0.03-0.06,0.04c-0.02,0.01-0.03,0.02-0.05,0.04c-0.02,0.02-0.04,0.03-0.07,0.05c-0.01,0.01-0.03,0.02-0.04,0.04
			c-0.02,0.02-0.04,0.04-0.06,0.06c-0.01,0.01-0.03,0.03-0.04,0.04c-0.02,0.02-0.04,0.04-0.05,0.06c-0.01,0.02-0.03,0.04-0.04,0.06
			c-0.01,0.02-0.03,0.04-0.04,0.05C95,0.65,94.99,0.67,94.97,0.7c-0.01,0.01-0.01,0.02-0.02,0.03c0,0,0,0.01-0.01,0.01
			c-0.02,0.03-0.03,0.06-0.04,0.09c-0.01,0.01-0.01,0.03-0.02,0.04c-0.01,0.03-0.02,0.05-0.03,0.08C94.84,0.98,94.83,1,94.83,1.01
			c-0.01,0.02-0.01,0.05-0.02,0.07c-0.01,0.02-0.01,0.05-0.02,0.07c0,0.02-0.01,0.04-0.01,0.06c0,0.03-0.01,0.06-0.01,0.09
			c0,0.02,0,0.03,0,0.05c0,0.03,0,0.06,0,0.1c0,0,0,0.01,0,0.02v52.18L50.67,79.1c0,0-0.01,0.01-0.01,0.01
			c-0.02,0.01-0.03,0.02-0.05,0.03c-0.02,0.01-0.03,0.02-0.04,0.03c-0.01,0.01-0.02,0.01-0.03,0.02c-0.02,0.01-0.03,0.02-0.04,0.04
			c-0.01,0.01-0.03,0.02-0.04,0.03c-0.01,0.01-0.02,0.02-0.03,0.03c-0.01,0.01-0.03,0.02-0.04,0.04c-0.01,0.01-0.02,0.02-0.03,0.03
			c-0.01,0.01-0.02,0.02-0.03,0.03c-0.01,0.01-0.02,0.02-0.03,0.03c-0.01,0.01-0.02,0.03-0.03,0.04s-0.02,0.03-0.03,0.04
			c-0.01,0.01-0.01,0.02-0.02,0.03c-0.01,0.02-0.02,0.03-0.03,0.05s-0.02,0.03-0.03,0.05c0,0-0.01,0.01-0.01,0.01s0,0.01-0.01,0.01
			c-0.01,0.02-0.02,0.03-0.03,0.05c-0.01,0.02-0.02,0.03-0.02,0.05c0,0.01-0.01,0.02-0.02,0.03c-0.01,0.02-0.01,0.04-0.02,0.05
			c-0.01,0.01-0.01,0.03-0.02,0.05c-0.01,0.01-0.01,0.03-0.01,0.04c0,0.02-0.01,0.03-0.01,0.05c0,0.01-0.01,0.03-0.01,0.04
			c0,0.02-0.01,0.03-0.01,0.05c0,0.01-0.01,0.03-0.01,0.04c0,0.02-0.01,0.03-0.01,0.05c0,0.02-0.01,0.04-0.01,0.05
			c0,0.01,0,0.02,0,0.04c0,0.02,0,0.04,0,0.05c0,0.02,0,0.04,0,0.06c0,0.01,0,0.01,0,0.02v53.02c0,0.81,0.66,1.46,1.46,1.46
			s1.46-0.66,1.46-1.46V82.9l32.81,18.94v52.27c0,0.81,0.66,1.46,1.46,1.46s1.46-0.66,1.46-1.46v-52.27l6.15-3.55v10.22
			c0,0.81,0.66,1.46,1.46,1.46c0.81,0,1.46-0.65,1.46-1.46V96.6l32.81-18.94v49.95c0,0.81,0.66,1.46,1.46,1.46
			c0.81,0,1.46-0.66,1.46-1.46V22.1C133.43,22.09,133.42,22.07,133.42,22.06z M87.14,99.31L54.33,80.37l41.89-24.19l32.81,18.94
			L87.14,99.31z M97.69,29.21l32.81,18.94v24.44L97.69,53.64V29.21z M130.5,44.77L97.69,25.82V4l32.81,18.94V44.77z"/>
	</g>
</g>
<g id="table" display="none">
	<g display="inline">
		<g>
			<g>
				<line fill="none" stroke="#777777" stroke-miterlimit="10" x1="154.47" y1="47.47" x2="154.47" y2="78.45"/>
				<g>
					<polygon fill="#777777" points="154.47,40.41 150.4,50.36 154.47,48 158.53,50.36 					"/>
				</g>
				<g>
					<polygon fill="#777777" points="154.47,85.51 150.4,75.56 154.47,77.93 158.53,75.56 					"/>
				</g>
			</g>
		</g>
		<g>
			<g>
				<line fill="none" stroke="#777777" stroke-miterlimit="10" x1="67.76" y1="4.01" x2="32.84" y2="24.17"/>
				<g>
					<polygon fill="#777777" points="73.87,0.48 63.22,1.94 67.3,4.28 67.29,8.98 					"/>
				</g>
				<g>
					<polygon fill="#777777" points="26.72,27.71 33.31,19.21 33.3,23.91 37.37,26.25 					"/>
				</g>
			</g>
		</g>
		<g>
			<g>
				<line fill="none" stroke="#777777" stroke-miterlimit="10" x1="103.59" y1="3.53" x2="144.26" y2="27.01"/>
				<g>
					<polygon fill="#777777" points="97.47,0 104.06,8.5 104.04,3.79 108.12,1.45 					"/>
				</g>
				<g>
					<polygon fill="#777777" points="150.37,30.54 139.72,29.09 143.8,26.75 143.79,22.04 					"/>
				</g>
			</g>
		</g>
		<path fill="#BBBDBF" d="M141.89,40.74c0-0.02,0-0.04,0-0.06c0-0.02,0-0.04,0-0.06c0-0.01,0-0.02,0-0.04
			c0-0.02-0.01-0.04-0.01-0.06c0-0.02-0.01-0.04-0.01-0.05c0-0.01-0.01-0.03-0.01-0.04c0-0.02-0.01-0.04-0.01-0.05
			c0-0.02-0.01-0.03-0.01-0.05c-0.01-0.02-0.01-0.04-0.02-0.05c0-0.02-0.01-0.03-0.02-0.05c-0.01-0.02-0.01-0.03-0.02-0.05
			c-0.01-0.02-0.01-0.04-0.02-0.06c-0.01-0.01-0.01-0.02-0.02-0.04c-0.01-0.02-0.02-0.04-0.03-0.05c-0.01-0.02-0.02-0.04-0.03-0.05
			c0,0,0-0.01-0.01-0.02c0-0.01-0.01-0.01-0.01-0.02c-0.01-0.02-0.02-0.04-0.03-0.05c-0.01-0.02-0.02-0.03-0.03-0.05
			c-0.01-0.01-0.02-0.02-0.02-0.03c-0.01-0.02-0.03-0.03-0.04-0.05c-0.01-0.01-0.02-0.03-0.03-0.04c-0.01-0.01-0.02-0.02-0.03-0.04
			c-0.01-0.01-0.03-0.03-0.04-0.04c-0.01-0.01-0.02-0.02-0.04-0.04c-0.01-0.01-0.03-0.03-0.04-0.04c-0.01-0.01-0.02-0.02-0.04-0.03
			c-0.01-0.01-0.03-0.02-0.04-0.03c-0.02-0.01-0.03-0.03-0.05-0.04c-0.01-0.01-0.02-0.02-0.03-0.02c-0.02-0.01-0.03-0.02-0.05-0.03
			c-0.02-0.01-0.04-0.02-0.05-0.03c0,0-0.01-0.01-0.01-0.01L85.75,7.42c-0.01-0.01-0.03-0.01-0.04-0.02
			c-0.03-0.01-0.06-0.03-0.09-0.04c-0.02-0.01-0.05-0.02-0.07-0.03c-0.02-0.01-0.05-0.02-0.07-0.03c-0.03-0.01-0.05-0.02-0.08-0.03
			c-0.02-0.01-0.04-0.01-0.06-0.02c-0.03-0.01-0.06-0.01-0.09-0.02c-0.02,0-0.04-0.01-0.06-0.01c-0.03,0-0.06-0.01-0.09-0.01
			c-0.02,0-0.05,0-0.07-0.01c-0.03,0-0.05,0-0.08,0c-0.03,0-0.05,0-0.08,0c-0.02,0-0.05,0-0.07,0.01c-0.03,0-0.06,0-0.09,0.01
			c-0.02,0-0.04,0.01-0.06,0.01c-0.03,0.01-0.06,0.01-0.09,0.02c-0.02,0.01-0.04,0.01-0.07,0.02c-0.03,0.01-0.05,0.02-0.08,0.03
			c-0.03,0.01-0.05,0.02-0.07,0.03c-0.02,0.01-0.05,0.02-0.07,0.03c-0.03,0.01-0.06,0.03-0.09,0.04c-0.01,0.01-0.03,0.01-0.04,0.02
			L38.69,33.66c-0.65,0.21-1.13,0.82-1.13,1.54v41.62c0,0.89,0.72,1.61,1.61,1.61c0.89,0,1.61-0.72,1.61-1.61V38.02L92.9,68.11
			v40.77c0,0.89,0.72,1.61,1.61,1.61s1.61-0.72,1.61-1.61V68.11l42.55-24.57v38.41c0,0.89,0.72,1.61,1.61,1.61
			c0.89,0,1.61-0.72,1.61-1.61v-41.2C141.89,40.75,141.89,40.75,141.89,40.74z M94.51,65.32L42.4,35.24l42.55-24.57l52.11,30.09
			L94.51,65.32z"/>
	</g>
</g>
</svg>
