<?xml version="1.0" encoding="utf-8"?>
<!-- Generator: Adobe Illustrator 16.0.0, SVG Export Plug-In . SVG Version: 6.00 Build 0)  -->
<!DOCTYPE svg PUBLIC "-//W3C//DTD SVG 1.1//EN" "http://www.w3.org/Graphics/SVG/1.1/DTD/svg11.dtd">
<svg version="1.1" xmlns="http://www.w3.org/2000/svg" xmlns:xlink="http://www.w3.org/1999/xlink" x="0px" y="0px"
	 width="181.19px" height="165.76px" viewBox="0 0 181.19 165.76" enable-background="new 0 0 181.19 165.76" xml:space="preserve">
<g id="chair" display="none">
	<g display="inline">
		<g>
			<g>
				<line fill="none" stroke="#777777" stroke-miterlimit="10" x1="30.9" y1="83.59" x2="30.9" y2="128.22"/>
				<g>
					<polygon fill="#777777" points="30.9,76.53 26.83,86.48 30.9,84.12 34.96,86.48 					"/>
				</g>
				<g>
					<polygon fill="#777777" points="30.9,135.28 26.83,125.33 30.9,127.7 34.96,125.33 					"/>
				</g>
			</g>
		</g>
		<g>
			<g>
				<line fill="none" stroke="#777777" stroke-miterlimit="10" x1="152.68" y1="29.41" x2="152.68" y2="124.89"/>
				<g>
					<polygon fill="#777777" points="152.68,22.35 148.61,32.3 152.68,29.94 156.74,32.3 					"/>
				</g>
				<g>
					<polygon fill="#777777" points="152.68,131.95 148.61,122 152.68,124.36 156.74,122 					"/>
				</g>
			</g>
		</g>
		<g>
			<g>
				<line fill="none" stroke="#777777" stroke-miterlimit="10" x1="76.24" y1="40.98" x2="34.63" y2="65"/>
				<g>
					<polygon fill="#777777" points="82.36,37.45 71.71,38.9 75.79,41.24 75.77,45.94 					"/>
				</g>
				<g>
					<polygon fill="#777777" points="28.52,68.53 35.1,60.04 35.09,64.74 39.17,67.08 					"/>
				</g>
			</g>
		</g>
		<g>
			<g>
				<line fill="none" stroke="#777777" stroke-miterlimit="10" x1="46.13" y1="145.77" x2="74.62" y2="162.23"/>
				<g>
					<polygon fill="#777777" points="40.01,142.24 46.59,150.74 46.58,146.04 50.66,143.7 					"/>
				</g>
				<g>
					<polygon fill="#777777" points="80.74,165.76 70.09,164.3 74.17,161.96 74.15,157.26 					"/>
				</g>
			</g>
		</g>
		<path fill="#BBBDBF" d="M133.42,22.06c0-0.03,0-0.06,0-0.09c0-0.02,0-0.05-0.01-0.07c0-0.02-0.01-0.05-0.01-0.07
			c0-0.03-0.01-0.05-0.02-0.08c0-0.02-0.01-0.04-0.02-0.06c-0.01-0.03-0.02-0.05-0.03-0.08c-0.01-0.02-0.01-0.04-0.02-0.05
			c-0.01-0.03-0.02-0.05-0.03-0.08c-0.01-0.02-0.02-0.04-0.03-0.06c-0.01-0.02-0.02-0.04-0.04-0.06c-0.01-0.02-0.02-0.04-0.04-0.06
			c-0.01-0.02-0.02-0.04-0.04-0.05c-0.02-0.02-0.03-0.04-0.05-0.06c-0.01-0.02-0.02-0.03-0.04-0.05c-0.02-0.02-0.04-0.04-0.05-0.06
			c-0.01-0.01-0.03-0.03-0.04-0.04c-0.02-0.02-0.04-0.04-0.06-0.05c-0.02-0.02-0.04-0.03-0.06-0.05c-0.02-0.01-0.04-0.03-0.05-0.04
			c-0.02-0.02-0.05-0.03-0.08-0.05c-0.01-0.01-0.02-0.01-0.03-0.02L96.95,0.2c0,0-0.01,0-0.01-0.01c-0.03-0.02-0.06-0.03-0.09-0.04
			c-0.01-0.01-0.03-0.02-0.04-0.02c-0.03-0.01-0.05-0.02-0.08-0.03c-0.02-0.01-0.04-0.01-0.06-0.02c-0.02-0.01-0.05-0.01-0.07-0.02
			c-0.02-0.01-0.05-0.01-0.07-0.02c-0.02,0-0.04-0.01-0.06-0.01c-0.03-0.01-0.06-0.01-0.09-0.01c-0.02,0-0.03,0-0.05,0
			c-0.03,0-0.07,0-0.1,0c0,0-0.01,0-0.01,0c-0.01,0-0.02,0-0.04,0c-0.03,0-0.06,0-0.09,0c-0.02,0-0.04,0-0.06,0.01
			c-0.03,0-0.05,0.01-0.08,0.01c-0.02,0-0.05,0.01-0.07,0.02c-0.02,0.01-0.04,0.01-0.06,0.02c-0.03,0.01-0.05,0.02-0.08,0.02
			C95.72,0.09,95.7,0.1,95.68,0.1c-0.02,0.01-0.05,0.02-0.07,0.03c-0.02,0.01-0.04,0.02-0.06,0.03c-0.02,0.01-0.04,0.02-0.06,0.03
			c-0.02,0.01-0.04,0.03-0.06,0.04c-0.02,0.01-0.03,0.02-0.05,0.04c-0.02,0.02-0.04,0.03-0.07,0.05c-0.01,0.01-0.03,0.02-0.04,0.04
			c-0.02,0.02-0.04,0.04-0.06,0.06c-0.01,0.01-0.03,0.03-0.04,0.04c-0.02,0.02-0.04,0.04-0.05,0.06c-0.01,0.02-0.03,0.04-0.04,0.06
			c-0.01,0.02-0.03,0.04-0.04,0.05C95,0.65,94.99,0.67,94.97,0.7c-0.01,0.01-0.01,0.02-0.02,0.03c0,0,0,0.01-0.01,0.01
			c-0.02,0.03-0.03,0.06-0.04,0.09c-0.01,0.01-0.01,0.03-0.02,0.04c-0.01,0.03-0.02,0.05-0.03,0.08C94.84,0.98,94.83,1,94.83,1.01
			c-0.01,0.02-0.01,0.05-0.02,0.07c-0.01,0.02-0.01,0.05-0.02,0.07c0,0.02-0.01,0.04-0.01,0.06c0,0.03-0.01,0.06-0.01,0.09
			c0,0.02,0,0.03,0,0.05c0,0.03,0,0.06,0,0.1c0,0,0,0.01,0,0.02v52.18L50.67,79.1c0,0-0.01,0.01-0.01,0.01
			c-0.02,0.01-0.03,0.02-0.05,0.03c-0.02,0.01-0.03,0.02-0.04,0.03c-0.01,0.01-0.02,0.01-0.03,0.02c-0.02,0.01-0.03,0.02-0.04,0.04
			c-0.01,0.01-0.03,0.02-0.04,0.03c-0.01,0.01-0.02,0.02-0.03,0.03c-0.01,0.01-0.03,0.02-0.04,0.04c-0.01,0.01-0.02,0.02-0.03,0.03
			c-0.01,0.01-0.02,0.02-0.03,0.03c-0.01,0.01-0.02,0.02-0.03,0.03c-0.01,0.01-0.02,0.03-0.03,0.04s-0.02,0.03-0.03,0.04
			c-0.01,0.01-0.01,0.02-0.02,0.03c-0.01,0.02-0.02,0.03-0.03,0.05s-0.02,0.03-0.03,0.05c0,0-0.01,0.01-0.01,0.01s0,0.01-0.01,0.01
			c-0.01,0.02-0.02,0.03-0.03,0.05c-0.01,0.02-0.02,0.03-0.02,0.05c0,0.01-0.01,0.02-0.02,0.03c-0.01,0.02-0.01,0.04-0.02,0.05
			c-0.01,0.01-0.01,0.03-0.02,0.05c-0.01,0.01-0.01,0.03-0.01,0.04c0,0.02-0.01,0.03-0.01,0.05c0,0.01-0.01,0.03-0.01,0.04
			c0,0.02-0.01,0.03-0.01,0.05c0,0.01-0.01,0.03-0.01,0.04c0,0.02-0.01,0.03-0.01,0.05c0,0.02-0.01,0.04-0.01,0.05
			c0,0.01,0,0.02,0,0.04c0,0.02,0,0.04,0,0.05c0,0.02,0,0.04,0,0.06c0,0.01,0,0.01,0,0.02v53.02c0,0.81,0.66,1.46,1.46,1.46
			s1.46-0.66,1.46-1.46V82.9l32.81,18.94v52.27c0,0.81,0.66,1.46,1.46,1.46s1.46-0.66,1.46-1.46v-52.27l6.15-3.55v10.22
			c0,0.81,0.66,1.46,1.46,1.46c0.81,0,1.46-0.65,1.46-1.46V96.6l32.81-18.94v49.95c0,0.81,0.66,1.46,1.46,1.46
			c0.81,0,1.46-0.66,1.46-1.46V22.1C133.43,22.09,133.42,22.07,133.42,22.06z M87.14,99.31L54.33,80.37l41.89-24.19l32.81,18.94
			L87.14,99.31z M97.69,29.21l32.81,18.94v24.44L97.69,53.64V29.21z M130.5,44.77L97.69,25.82V4l32.81,18.94V44.77z"/>
	</g>
</g>
<g id="stool" display="none">
	<g display="inline">
		<g>
			<line fill="none" stroke="#777777" stroke-miterlimit="10" x1="30.9" y1="67.12" x2="30.9" y2="128.22"/>
			<g>
				<polygon fill="#777777" points="30.9,60.06 26.83,70.01 30.9,67.65 34.96,70.01 				"/>
			</g>
			<g>
				<polygon fill="#777777" points="30.9,135.28 26.83,125.33 30.9,127.7 34.96,125.33 				"/>
			</g>
		</g>
	</g>
	<g display="inline">
		<g>
			<line fill="none" stroke="#777777" stroke-miterlimit="10" x1="148.68" y1="28.41" x2="148.68" y2="123.89"/>
			<g>
				<polygon fill="#777777" points="148.68,21.35 144.61,31.3 148.68,28.94 152.74,31.3 				"/>
			</g>
			<g>
				<polygon fill="#777777" points="148.68,130.95 144.61,121 148.68,123.36 152.74,121 				"/>
			</g>
		</g>
	</g>
	<g display="inline">
		<g>
			<line fill="none" stroke="#777777" stroke-miterlimit="10" x1="77.24" y1="25.98" x2="38.65" y2="48.26"/>
			<g>
				<polygon fill="#777777" points="83.36,22.45 72.71,23.9 76.79,26.24 76.77,30.94 				"/>
			</g>
			<g>
				<polygon fill="#777777" points="32.53,51.79 39.12,43.3 39.1,48 43.18,50.34 				"/>
			</g>
		</g>
	</g>
	<g display="inline">
		<g>
			<line fill="none" stroke="#777777" stroke-miterlimit="10" x1="46.13" y1="145.77" x2="74.62" y2="162.23"/>
			<g>
				<polygon fill="#777777" points="40.01,142.24 46.59,150.74 46.58,146.04 50.66,143.7 				"/>
			</g>
			<g>
				<polygon fill="#777777" points="80.74,165.76 70.09,164.3 74.17,161.96 74.15,157.26 				"/>
			</g>
		</g>
	</g>
	<path display="inline" fill="#BBBDBF" d="M134.32,23.11c0-0.07-0.12-0.14-0.13-0.22c-0.01-0.06-0.07-0.12-0.08-0.18
		c-0.01-0.06-0.06-0.13-0.08-0.19c-0.02-0.06-0.05-0.12-0.08-0.18c-0.03-0.06-0.07-0.12-0.1-0.17c-0.03-0.05-0.07-0.11-0.1-0.16
		c-0.04-0.05-0.08-0.1-0.13-0.15c-0.04-0.05-0.08-0.1-0.13-0.14c-0.04-0.04-0.09-0.08-0.14-0.12c-0.06-0.04-0.11-0.09-0.18-0.13
		c-0.02-0.01-0.03-0.03-0.05-0.04L96.43,0.27c-0.03-0.02-0.07-0.03-0.1-0.05c-0.06-0.03-0.13-0.06-0.2-0.09
		c-0.06-0.02-0.12-0.04-0.19-0.06c-0.06-0.02-0.12-0.03-0.18-0.04c-0.08-0.01-0.15-0.02-0.23-0.02C95.5,0.01,95.47,0,95.43,0
		c-0.02,0-0.04,0.01-0.06,0.01c-0.08,0-0.15,0.01-0.23,0.02c-0.06,0.01-0.11,0.02-0.17,0.03c-0.07,0.02-0.13,0.04-0.2,0.06
		c-0.06,0.02-0.12,0.04-0.17,0.06c-0.06,0.03-0.12,0.06-0.18,0.1c-0.05,0.03-0.11,0.06-0.16,0.1c-0.05,0.04-0.1,0.08-0.15,0.13
		c-0.05,0.04-0.1,0.08-0.14,0.13c-0.04,0.04-0.08,0.09-0.12,0.14c-0.04,0.06-0.09,0.11-0.12,0.17C93.73,0.97,93.71,0.98,93.7,1
		c-0.02,0.03-0.03,0.07-0.05,0.1c-0.03,0.07-0.06,0.13-0.09,0.2c-0.02,0.06-0.04,0.12-0.06,0.18c-0.02,0.06-0.03,0.13-0.04,0.19
		c-0.01,0.07,0.03,0.14,0.03,0.21c0,0.04,0.04,0.07,0.04,0.11v32.76L48.32,60.84c-0.02,0.01-0.06,0.03-0.08,0.04
		c-0.04,0.02-0.08,0.04-0.12,0.07c-0.04,0.03-0.08,0.06-0.12,0.09c-0.03,0.03-0.07,0.06-0.1,0.09c-0.03,0.03-0.05,0.05-0.08,0.08
		c-0.03,0.03-0.06,0.07-0.09,0.1s-0.06,0.07-0.09,0.11c-0.02,0.03-0.05,0.07-0.07,0.11c-0.01,0.02-0.03,0.03-0.04,0.05
		c-0.01,0.02-0.02,0.04-0.03,0.06c-0.02,0.04-0.04,0.07-0.06,0.11c-0.02,0.04-0.04,0.09-0.05,0.13c-0.02,0.04-0.03,0.08-0.04,0.13
		c-0.01,0.04-0.02,0.07-0.03,0.11c-0.01,0.04-0.02,0.09-0.03,0.14c-0.01,0.05-0.02,0.09-0.02,0.14c0,0.04,0.13,0.08,0.13,0.12
		c0,0.02,0.13,0.04,0.13,0.07v74.46c0,1.1,0.9,2,2,2s2-0.9,2-2V66.03l33,18.87v73.3c0,1.1,0.9,2,2,2s2-0.9,2-2V84.9l5-3.17v28.54
		c0,1.1,0.9,2,2,2c1.1,0,2-0.9,2-2V79.42l33-18.87v70.89c0,1.1,0.89,2,2,2c1.1,0,2-0.9,2-2V23.18
		C134.53,23.15,134.32,23.13,134.32,23.11z M85.95,81.44L53.27,62.57l42.16-24.34l32.68,18.87L85.95,81.44z M97.53,32.06l33,18.87
		v2.71l-33-18.87V32.06z M130.53,46.3l-33-18.87V5.46l33,18.87V46.3z"/>
</g>
<g id="table" display="none">
	<g display="inline">
		<g>
			<g>
				<line fill="none" stroke="#777777" stroke-miterlimit="10" x1="154.47" y1="47.47" x2="154.47" y2="78.45"/>
				<g>
					<polygon fill="#777777" points="154.47,40.41 150.4,50.36 154.47,48 158.53,50.36 					"/>
				</g>
				<g>
					<polygon fill="#777777" points="154.47,85.51 150.4,75.56 154.47,77.93 158.53,75.56 					"/>
				</g>
			</g>
		</g>
		<g>
			<g>
				<line fill="none" stroke="#777777" stroke-miterlimit="10" x1="67.76" y1="4.01" x2="32.84" y2="24.17"/>
				<g>
					<polygon fill="#777777" points="73.87,0.48 63.22,1.94 67.3,4.28 67.29,8.98 					"/>
				</g>
				<g>
					<polygon fill="#777777" points="26.72,27.71 33.31,19.21 33.3,23.91 37.37,26.25 					"/>
				</g>
			</g>
		</g>
		<g>
			<g>
				<line fill="none" stroke="#777777" stroke-miterlimit="10" x1="103.59" y1="3.53" x2="144.26" y2="27.01"/>
				<g>
					<polygon fill="#777777" points="97.47,0 104.06,8.5 104.04,3.79 108.12,1.45 					"/>
				</g>
				<g>
					<polygon fill="#777777" points="150.37,30.54 139.72,29.09 143.8,26.75 143.79,22.04 					"/>
				</g>
			</g>
		</g>
		<path fill="#BBBDBF" d="M141.89,40.74c0-0.02,0-0.04,0-0.06c0-0.02,0-0.04,0-0.06c0-0.01,0-0.02,0-0.04
			c0-0.02-0.01-0.04-0.01-0.06c0-0.02-0.01-0.04-0.01-0.05c0-0.01-0.01-0.03-0.01-0.04c0-0.02-0.01-0.04-0.01-0.05
			c0-0.02-0.01-0.03-0.01-0.05c-0.01-0.02-0.01-0.04-0.02-0.05c0-0.02-0.01-0.03-0.02-0.05c-0.01-0.02-0.01-0.03-0.02-0.05
			c-0.01-0.02-0.01-0.04-0.02-0.06c-0.01-0.01-0.01-0.02-0.02-0.04c-0.01-0.02-0.02-0.04-0.03-0.05c-0.01-0.02-0.02-0.04-0.03-0.05
			c0,0,0-0.01-0.01-0.02c0-0.01-0.01-0.01-0.01-0.02c-0.01-0.02-0.02-0.04-0.03-0.05c-0.01-0.02-0.02-0.03-0.03-0.05
			c-0.01-0.01-0.02-0.02-0.02-0.03c-0.01-0.02-0.03-0.03-0.04-0.05c-0.01-0.01-0.02-0.03-0.03-0.04c-0.01-0.01-0.02-0.02-0.03-0.04
			c-0.01-0.01-0.03-0.03-0.04-0.04c-0.01-0.01-0.02-0.02-0.04-0.04c-0.01-0.01-0.03-0.03-0.04-0.04c-0.01-0.01-0.02-0.02-0.04-0.03
			c-0.01-0.01-0.03-0.02-0.04-0.03c-0.02-0.01-0.03-0.03-0.05-0.04c-0.01-0.01-0.02-0.02-0.03-0.02c-0.02-0.01-0.03-0.02-0.05-0.03
			c-0.02-0.01-0.04-0.02-0.05-0.03c0,0-0.01-0.01-0.01-0.01L85.75,7.42c-0.01-0.01-0.03-0.01-0.04-0.02
			c-0.03-0.01-0.06-0.03-0.09-0.04c-0.02-0.01-0.05-0.02-0.07-0.03c-0.02-0.01-0.05-0.02-0.07-0.03c-0.03-0.01-0.05-0.02-0.08-0.03
			c-0.02-0.01-0.04-0.01-0.06-0.02c-0.03-0.01-0.06-0.01-0.09-0.02c-0.02,0-0.04-0.01-0.06-0.01c-0.03,0-0.06-0.01-0.09-0.01
			c-0.02,0-0.05,0-0.07-0.01c-0.03,0-0.05,0-0.08,0c-0.03,0-0.05,0-0.08,0c-0.02,0-0.05,0-0.07,0.01c-0.03,0-0.06,0-0.09,0.01
			c-0.02,0-0.04,0.01-0.06,0.01c-0.03,0.01-0.06,0.01-0.09,0.02c-0.02,0.01-0.04,0.01-0.07,0.02c-0.03,0.01-0.05,0.02-0.08,0.03
			c-0.03,0.01-0.05,0.02-0.07,0.03c-0.02,0.01-0.05,0.02-0.07,0.03c-0.03,0.01-0.06,0.03-0.09,0.04c-0.01,0.01-0.03,0.01-0.04,0.02
			L38.69,33.66c-0.65,0.21-1.13,0.82-1.13,1.54v41.62c0,0.89,0.72,1.61,1.61,1.61c0.89,0,1.61-0.72,1.61-1.61V38.02L92.9,68.11
			v40.77c0,0.89,0.72,1.61,1.61,1.61s1.61-0.72,1.61-1.61V68.11l42.55-24.57v38.41c0,0.89,0.72,1.61,1.61,1.61
			c0.89,0,1.61-0.72,1.61-1.61v-41.2C141.89,40.75,141.89,40.75,141.89,40.74z M94.51,65.32L42.4,35.24l42.55-24.57l52.11,30.09
			L94.51,65.32z"/>
	</g>
</g>
<g id="lamp" display="none">
	<g display="inline">
		<g>
			<g>
				<line fill="none" stroke="#777777" stroke-miterlimit="10" x1="147.6" y1="16.33" x2="147.6" y2="132.25"/>
				<g>
					<polygon fill="#777777" points="147.6,9.27 143.53,19.22 147.6,16.86 151.66,19.22 					"/>
				</g>
				<g>
					<polygon fill="#777777" points="147.6,139.31 143.53,129.36 147.6,131.72 151.66,129.36 					"/>
				</g>
			</g>
		</g>
		<g>
			<g>
				<line fill="none" stroke="#777777" stroke-miterlimit="10" x1="86.73" y1="61.3" x2="54.71" y2="79.79"/>
				<g>
					<polygon fill="#777777" points="92.85,57.77 82.2,59.23 86.27,61.57 86.26,66.27 					"/>
				</g>
				<g>
					<polygon fill="#777777" points="48.6,83.32 55.18,74.82 55.17,79.53 59.24,81.86 					"/>
				</g>
			</g>
		</g>
		<g>
			<g>
				<line fill="none" stroke="#777777" stroke-miterlimit="10" x1="59.99" y1="141.35" x2="96.15" y2="162.23"/>
				<g>
					<polygon fill="#777777" points="53.88,137.82 60.46,146.31 60.45,141.61 64.53,139.27 					"/>
				</g>
				<g>
					<polygon fill="#777777" points="102.27,165.76 91.62,164.3 95.7,161.96 95.68,157.26 					"/>
				</g>
			</g>
		</g>
		<path fill="#BBBDBF" d="M137.43,88.5c-0.01-0.04,0-0.07,0-0.11c-0.53-10.51-12.77-17.88-30.31-18.27l0.03-45.92
			c6.23-0.42,11.16-3.41,11.84-7.16c0.46-0.38,0.55-0.84,0.55-1.2V8.11c0-0.72-0.48-1.33-1.16-1.47C117.36,2.72,112.32,0,105.62,0
			c-7.2,0-12.54,3.14-12.95,7.55c-0.07,0.17-0.13,0.36-0.13,0.56v8c0,0.2,0.07,0.39,0.15,0.56c0.48,3.72,5.58,7.03,11.45,7.51
			l-0.01,45.94C86.64,70.52,74.4,77.84,73.8,88.3c-0.15,0.23-0.26,0.51-0.26,0.81v44c0,0.3,0.12,0.58,0.28,0.82
			c0.7,10.4,14.16,18.14,31.81,18.14c17.6,0,31.92-8.53,31.92-19.01c0-0.11-0.02-0.22-0.01-0.33c0.02-0.19,0-0.38,0-0.56V89.11
			C137.53,88.89,137.51,88.69,137.43,88.5z M105.63,3c5.67,0,9.95,2.2,9.95,5.11c0,0.02,0.01,0.05,0.01,0.07c0,0.01,0,0.01,0,0.02
			c0,2.47-4,5.11-9.96,5.11s-9.96-2.64-9.96-5.11c0-0.02,0-0.04-0.01-0.06c0-0.01,0.01-0.02,0.01-0.03C95.68,5.2,99.96,3,105.63,3z
			 M95.65,16.11c0-0.16-0.11-0.32-0.11-0.46v-2.26c2,1.8,5.95,2.93,10.04,2.93c4.67,0,8.96-1.48,10.96-3.74v2.45
			c0,0.36-0.47,0.79-0.47,1.13c0,2.4-4.48,5.09-10.47,5.09C99.76,21.26,95.65,17.92,95.65,16.11z M104.12,73.12l-0.01,15.61
			c0,0.83,0.67,1.5,1.5,1.5l0,0c0.83,0,1.5-0.67,1.5-1.5l0.01-15.62c16.17,0.37,27.34,6.84,27.34,15.99c0,0.01,0,0.02,0,0.03
			c-0.39,8.64-13.17,15.6-28.82,15.6c-15.8,0-28.66-7.09-28.83-15.83C76.98,79.88,88.08,73.5,104.12,73.12z M134.55,132.5
			c-0.01,0.19-0.01,0.38-0.01,0.57c0,8.68-13.23,16.01-28.9,16.01c-16.14,0-28.83-7.02-28.85-15.97c0-0.28-0.24-0.54-0.24-0.77
			v-35.7c5,6.61,15.95,11.11,29.05,11.11c13.01,0,23.95-4.44,28.95-10.97v35.4C134.53,132.28,134.55,132.39,134.55,132.5z"/>
		<g>
			<g>
				
					<line fill="none" stroke="#777777" stroke-linecap="round" stroke-miterlimit="10" x1="79.2" y1="103.6" x2="53.88" y2="118.22"/>
				<g>
					<polygon fill="#777777" points="85.31,100.07 74.66,101.53 78.74,103.87 78.73,108.57 					"/>
				</g>
			</g>
		</g>
		
			<line fill="none" stroke="#777777" stroke-linecap="round" stroke-miterlimit="10" x1="53.53" y1="118.06" x2="33.53" y2="118.06"/>
	</g>
</g>
<g id="sofa" display="none">
	<g display="inline">
		<g>
			<line fill="none" stroke="#777777" stroke-miterlimit="10" x1="173.15" y1="51.45" x2="173.15" y2="108.72"/>
			<g>
				<polygon fill="#777777" points="173.15,44.39 169.09,54.34 173.15,51.98 177.22,54.34 				"/>
			</g>
			<g>
				<polygon fill="#777777" points="173.15,115.78 169.09,105.83 173.15,108.19 177.22,105.83 				"/>
			</g>
		</g>
	</g>
	<g display="inline">
		<g>
			<line fill="none" stroke="#777777" stroke-miterlimit="10" x1="111.71" y1="156.3" x2="166.84" y2="124.44"/>
			<g>
				<polygon fill="#777777" points="105.6,159.83 116.25,158.37 112.17,156.03 112.18,151.33 				"/>
			</g>
			<g>
				<polygon fill="#777777" points="172.96,120.9 166.38,129.4 166.38,124.7 162.31,122.36 				"/>
			</g>
		</g>
	</g>
	<g display="inline">
		<g>
			<line fill="none" stroke="#777777" stroke-miterlimit="10" x1="107.1" y1="4.53" x2="164.48" y2="37.61"/>
			<g>
				<polygon fill="#777777" points="100.98,1 107.57,9.49 107.56,4.79 111.63,2.45 				"/>
			</g>
			<g>
				<polygon fill="#777777" points="170.6,41.14 159.95,39.69 164.03,37.35 164.01,32.65 				"/>
			</g>
		</g>
	</g>
	<g display="inline">
		<g>
			<line fill="none" stroke="#777777" stroke-miterlimit="10" x1="7.04" y1="88.35" x2="7.04" y2="100.21"/>
			<g>
				<polygon fill="#777777" points="7.04,81.28 2.98,91.23 7.04,88.87 11.11,91.23 				"/>
			</g>
			<g>
				<polygon fill="#777777" points="7.04,107.27 2.98,97.32 7.04,99.68 11.11,97.32 				"/>
			</g>
		</g>
	</g>
	<path display="inline" fill="#BBBDBF" d="M160.53,70.07c0-0.08,0.17-0.16,0.16-0.23c0.01-0.09,0.11-0.18,0.11-0.28
		c0.02-0.54-0.31-1.07-0.81-1.35l-12.46-7.15V40.16c0-0.02,0.11-0.03,0.11-0.05c0-0.03,0.06-0.06,0.05-0.09
		c0-0.03,0.02-0.07,0.01-0.1c-0.01-0.03,0-0.07,0-0.1c-0.01-0.03-0.01-0.06-0.01-0.08c-0.01-0.03-0.02-0.06-0.03-0.1
		c-0.01-0.03-0.02-0.06-0.04-0.1c-0.01-0.03-0.03-0.06-0.04-0.09c-0.01-0.01-0.01-0.03-0.02-0.04c-0.01-0.01-0.02-0.03-0.03-0.04
		c-0.02-0.03-0.03-0.05-0.05-0.08c-0.02-0.03-0.04-0.05-0.06-0.08c-0.02-0.03-0.04-0.05-0.07-0.08c-0.02-0.02-0.04-0.04-0.06-0.06
		c-0.02-0.02-0.05-0.04-0.08-0.07c-0.03-0.02-0.06-0.05-0.09-0.07c-0.02-0.02-0.05-0.03-0.08-0.05c-0.01-0.01-0.02-0.02-0.04-0.03
		L96.36,9.53c-0.01-0.01-0.03-0.01-0.04-0.02c-0.05-0.03-0.11-0.05-0.16-0.07c-0.04-0.01-0.08-0.03-0.11-0.04
		c-0.05-0.02-0.11-0.03-0.16-0.04c-0.04-0.01-0.08-0.02-0.12-0.02c-0.05-0.01-0.11,0-0.16,0c-0.04,0-0.09,0-0.13,0
		c-0.05,0-0.1,0.02-0.15,0.02c-0.05,0.01-0.09,0.02-0.14,0.03c-0.04,0.01-0.08,0.03-0.13,0.05C95,9.46,94.95,9.48,94.9,9.51
		c-0.01,0.01-0.03,0.01-0.04,0.02l-16.69,9.63c-0.01,0.01-0.02,0.02-0.04,0.03c-0.03,0.02-0.05,0.03-0.08,0.05
		c-0.03,0.02-0.06,0.04-0.08,0.07c-0.03,0.02-0.05,0.04-0.08,0.06c-0.02,0.02-0.04,0.04-0.06,0.06c-0.02,0.02-0.05,0.05-0.07,0.08
		c-0.02,0.03-0.04,0.05-0.06,0.08c-0.02,0.03-0.04,0.05-0.05,0.08c-0.01,0.01-0.02,0.02-0.03,0.04c-0.01,0.02-0.01,0.03-0.02,0.05
		c-0.01,0.03-0.03,0.06-0.04,0.08c-0.01,0.03-0.03,0.06-0.04,0.1c-0.01,0.03-0.02,0.06-0.03,0.1c-0.01,0.03-0.02,0.05-0.02,0.08
		c-0.01,0.03-0.01,0.07-0.02,0.1c-0.01,0.03-0.01,0.07-0.01,0.1c0,0.03,0.05,0.06,0.05,0.09c0,0.02,0.05,0.03,0.05,0.05v6.95
		L18.67,61.36c-0.01,0.01-0.05,0.02-0.07,0.03c-0.03,0.02-0.07,0.03-0.1,0.05c-0.03,0.02-0.06,0.04-0.09,0.06s-0.06,0.04-0.08,0.07
		c-0.02,0.02-0.04,0.04-0.06,0.06c-0.02,0.02-0.04,0.05-0.07,0.07c-0.02,0.03-0.04,0.05-0.06,0.08c-0.02,0.03-0.04,0.05-0.05,0.08
		c-0.01,0.01-0.02,0.02-0.03,0.04c-0.01,0.01-0.01,0.03-0.02,0.04c-0.02,0.03-0.03,0.06-0.04,0.08c-0.01,0.03-0.03,0.06-0.04,0.1
		c-0.01,0.03-0.02,0.06-0.03,0.1c-0.01,0.03-0.02,0.05-0.02,0.08c-0.01,0.03-0.01,0.07-0.02,0.1c-0.01,0.03-0.01,0.07-0.01,0.1
		c0,0.03-0.17,0.06-0.17,0.09c0,0.02-0.17,0.03-0.17,0.05v42.46c0,0.03,0.17,0.05,0.17,0.08c-0.02,0.54,0.32,1.07,0.82,1.36
		l75.72,43.7c0.24,0.14,0.51,0.2,0.77,0.2c0.04,0,0.09-0.01,0.12-0.01c0.05,0,0.1,0.01,0.15,0.01c0,0,0,0.05,0,0.05
		c0,0,0,0.05,0,0.05c0,0,0,0,0.01,0c0.12,0,0.23-0.07,0.34-0.09c0.03-0.01,0.06-0.04,0.09-0.05c0.09-0.03,0.17-0.07,0.25-0.12
		c0.02-0.01,0.04-0.02,0.05-0.03l64.1-37.01c0.01-0.01,0.03-0.02,0.04-0.03c0.05-0.03,0.09-0.06,0.13-0.09
		c0.04-0.03,0.07-0.06,0.11-0.09s0.06-0.07,0.1-0.1c0.03-0.04,0.07-0.07,0.1-0.12c0.03-0.04,0.05-0.08,0.07-0.12
		c0.02-0.04,0.05-0.08,0.07-0.13c0.02-0.04,0.03-0.09,0.05-0.13c0.02-0.05,0.03-0.09,0.04-0.14c0.01-0.04,0.02-0.09,0.02-0.14
		c0.01-0.05-0.17-0.1-0.17-0.16c0-0.02-0.18-0.03-0.18-0.05V70.07z M20.53,65.26l10,5.57v20.41c0,0.02-0.01,0.03-0.01,0.05
		c0,0.05,0,0.11,0.01,0.16c0.01,0.05,0.01,0.09,0.02,0.14c0.01,0.05,0.03,0.09,0.04,0.14c0.02,0.05,0.03,0.09,0.05,0.14
		c0.02,0.04,0.04,0.08,0.07,0.13c0.02,0.04,0.05,0.08,0.07,0.12c0.03,0.04,0.06,0.08,0.09,0.11c0.03,0.04,0.06,0.07,0.1,0.1
		c0.03,0.03,0.07,0.06,0.11,0.09c0.04,0.03,0.08,0.06,0.13,0.09c0.02,0.01,0.03,0.02,0.04,0.03l50.66,28.93
		c0.02,0.01,0.04,0.01,0.06,0.02c0.08,0.04,0.16,0.07,0.25,0.1c0.03,0.01,0.06-0.03,0.09-0.03c0.11,0.03,0.22-0.01,0.34-0.01
		c0,0-0.12,0-0.12,0v0.06v0.03c0,0,0.3,0,0.42-0.03c0.03-0.01,0.09-0.01,0.12-0.02c0.09-0.03,0.18-0.06,0.26-0.1
		c0.03-0.02,0.07-0.03,0.1-0.05c0.09-0.06,0.18-0.12,0.26-0.19c0.01-0.01,0.02-0.01,0.03-0.02c0.08-0.08,0.16-0.18,0.22-0.28
		c0.01-0.01,0.02-0.02,0.03-0.03c0.01-0.03,0.02-0.05,0.04-0.08c0.02-0.05,0.04-0.09,0.06-0.14c0.02-0.05,0.03-0.09,0.04-0.14
		c0.01-0.04,0.02-0.09,0.03-0.14c0.01-0.06,0.2-0.11,0.2-0.17c0-0.03,0.19-0.05,0.19-0.08v-18.23l9,5.57v39.01l-73-42.11V65.26z
		 M95.61,12.56l47.67,27.61l-13.69,7.9L81.92,20.46L95.61,12.56z M95.29,104.9l-10.23-5.91l26.62-15.37c0,0,0,0,0,0l34.58-19.97
		l10.23,5.91L95.29,104.9z M34.85,91.03l44.17-25.55l28.98,16.84L82.62,97.06c-0.71,0.12-1.09,0.73-1.09,1.47v19.05L34.85,91.03z
		 M144.53,61.06l-13,7.9V50.66l13-7.9V61.06z M128.53,50.66v20.03l-17.31,9.89L80.53,62.88V23.06L128.53,50.66z M77.53,62.87
		l-44,25.36V70.83l44-25.36V62.87z M96.53,107.49l61-35.28v38.87l-61,35.28V107.49z M77.53,42L32.06,68.23l-9.61-5.57l55.09-31.79
		V42z"/>
</g>
<g id="cushion" display="none">
	<g display="inline">
		<g>
			<line fill="none" stroke="#777777" stroke-miterlimit="10" x1="15.04" y1="25.37" x2="15.04" y2="140.55"/>
			<g>
				<polygon fill="#777777" points="15.04,18.31 10.98,28.26 15.04,25.9 19.11,28.26 				"/>
			</g>
			<g>
				<polygon fill="#777777" points="15.04,147.61 10.98,137.66 15.04,140.02 19.11,137.66 				"/>
			</g>
		</g>
	</g>
	<g display="inline">
		<g>
			<line fill="none" stroke="#777777" stroke-miterlimit="10" x1="39.81" y1="4.22" x2="154.98" y2="4.22"/>
			<g>
				<polygon fill="#777777" points="32.75,4.22 42.7,8.29 40.34,4.22 42.7,0.16 				"/>
			</g>
			<g>
				<polygon fill="#777777" points="162.04,4.22 152.09,8.29 154.46,4.22 152.09,0.16 				"/>
			</g>
		</g>
	</g>
	<g display="inline">
		<path fill="#BBBDBF" d="M34.45,147.61c-0.45,0-0.89-0.18-1.21-0.5c-0.36-0.37-0.55-0.88-0.49-1.39
			c0.05-0.47,4.87-47.24,4.87-62.76c0-15.51-4.82-62.28-4.87-62.76c-0.05-0.51,0.13-1.02,0.49-1.39c0.36-0.37,0.87-0.55,1.39-0.49
			c0.47,0.05,47.24,4.87,62.76,4.87c15.51,0,62.28-4.82,62.75-4.87c0.52-0.06,1.02,0.13,1.39,0.49c0.37,0.36,0.55,0.88,0.49,1.39
			c-0.05,0.47-4.87,47.24-4.87,62.76c0,14.89,4.44,58.58,4.84,62.48c0.04,0.14,0.06,0.27,0.06,0.43c0,0.95-0.77,1.69-1.71,1.69
			c-0.01,0-0.01,0-0.02,0c-0.06,0-0.12,0.02-0.18,0.02c-0.47-0.05-47.25-4.86-62.75-4.86c-15.51,0-62.29,4.83-62.76,4.88
			C34.57,147.6,34.51,147.61,34.45,147.61z M36.37,21.95c0.95,9.41,4.67,47.04,4.67,61.01c0,13.98-3.72,51.6-4.67,61.01
			c9.41-0.95,47.04-4.67,61.01-4.67c13.97,0,51.6,3.72,61.01,4.67c-0.95-9.41-4.67-47.04-4.67-61.01c0-13.97,3.72-51.6,4.67-61.01
			c-9.41,0.95-47.04,4.67-61.01,4.67C83.41,26.62,45.79,22.9,36.37,21.95z"/>
	</g>
</g>
<g id="Layer_7">
	<g>
		<g>
			<g>
				<line fill="none" stroke="#777777" stroke-miterlimit="10" x1="173.04" y1="28.72" x2="173.04" y2="79.6"/>
				<g>
					<polygon fill="#777777" points="173.04,21.66 168.98,31.61 173.04,29.25 177.11,31.61 					"/>
				</g>
				<g>
					<polygon fill="#777777" points="173.04,86.66 168.98,76.71 173.04,79.07 177.11,76.71 					"/>
				</g>
			</g>
		</g>
		<g>
			<g>
				<line fill="none" stroke="#777777" stroke-miterlimit="10" x1="10.09" y1="5.1" x2="146.97" y2="5.1"/>
				<g>
					<polygon fill="#777777" points="3.03,5.1 12.98,9.16 10.62,5.1 12.98,1.03 					"/>
				</g>
				<g>
					<polygon fill="#777777" points="154.03,5.1 144.08,9.16 146.45,5.1 144.08,1.03 					"/>
				</g>
			</g>
		</g>
		<g>
			<path fill="#BBBDBF" d="M129.53,85.06c0,0.83-0.67,1.5-1.5,1.5h-97c-0.83,0-1.5-0.67-1.5-1.5v-62c0-0.83,0.67-1.5,1.5-1.5h97
				c0.83,0,1.5,0.67,1.5,1.5V85.06z M32.53,83.56h94v-59h-94V83.56z"/>
		</g>
		<g>
			<path fill="#BBBDBF" d="M22.53,24.56h-17c-0.83,0-1.5-0.67-1.5-1.5c0-0.83,0.67-1.5,1.5-1.5h17c0.83,0,1.5,0.67,1.5,1.5
				C24.03,23.89,23.36,24.56,22.53,24.56z"/>
		</g>
		<g>
			<path fill="#BBBDBF" d="M22.53,33.56h-17c-0.83,0-1.5-0.67-1.5-1.5c0-0.83,0.67-1.5,1.5-1.5h17c0.83,0,1.5,0.67,1.5,1.5
				C24.03,32.89,23.36,33.56,22.53,33.56z"/>
		</g>
		<g>
			<path fill="#BBBDBF" d="M22.53,42.56h-17c-0.83,0-1.5-0.67-1.5-1.5c0-0.83,0.67-1.5,1.5-1.5h17c0.83,0,1.5,0.67,1.5,1.5
				C24.03,41.89,23.36,42.56,22.53,42.56z"/>
		</g>
		<g>
			<path fill="#BBBDBF" d="M22.53,51.56h-17c-0.83,0-1.5-0.67-1.5-1.5c0-0.83,0.67-1.5,1.5-1.5h17c0.83,0,1.5,0.67,1.5,1.5
				C24.03,50.89,23.36,51.56,22.53,51.56z"/>
		</g>
		<g>
			<path fill="#BBBDBF" d="M22.53,60.56h-17c-0.83,0-1.5-0.67-1.5-1.5c0-0.83,0.67-1.5,1.5-1.5h17c0.83,0,1.5,0.67,1.5,1.5
				C24.03,59.89,23.36,60.56,22.53,60.56z"/>
		</g>
		<g>
			<path fill="#BBBDBF" d="M22.53,68.56h-17c-0.83,0-1.5-0.67-1.5-1.5c0-0.83,0.67-1.5,1.5-1.5h17c0.83,0,1.5,0.67,1.5,1.5
				C24.03,67.89,23.36,68.56,22.53,68.56z"/>
		</g>
		<g>
			<path fill="#BBBDBF" d="M22.53,77.56h-17c-0.83,0-1.5-0.67-1.5-1.5s0.67-1.5,1.5-1.5h17c0.83,0,1.5,0.67,1.5,1.5
				S23.36,77.56,22.53,77.56z"/>
		</g>
		<g>
			<path fill="#BBBDBF" d="M22.53,86.56h-17c-0.83,0-1.5-0.67-1.5-1.5s0.67-1.5,1.5-1.5h17c0.83,0,1.5,0.67,1.5,1.5
				S23.36,86.56,22.53,86.56z"/>
		</g>
		<g>
			<path fill="#BBBDBF" d="M153.53,24.56h-16c-0.83,0-1.5-0.67-1.5-1.5c0-0.83,0.67-1.5,1.5-1.5h16c0.83,0,1.5,0.67,1.5,1.5
				C155.03,23.89,154.36,24.56,153.53,24.56z"/>
		</g>
		<g>
			<path fill="#BBBDBF" d="M153.53,33.56h-16c-0.83,0-1.5-0.67-1.5-1.5c0-0.83,0.67-1.5,1.5-1.5h16c0.83,0,1.5,0.67,1.5,1.5
				C155.03,32.89,154.36,33.56,153.53,33.56z"/>
		</g>
		<g>
			<path fill="#BBBDBF" d="M153.53,42.56h-16c-0.83,0-1.5-0.67-1.5-1.5c0-0.83,0.67-1.5,1.5-1.5h16c0.83,0,1.5,0.67,1.5,1.5
				C155.03,41.89,154.36,42.56,153.53,42.56z"/>
		</g>
		<g>
			<path fill="#BBBDBF" d="M153.53,51.56h-16c-0.83,0-1.5-0.67-1.5-1.5c0-0.83,0.67-1.5,1.5-1.5h16c0.83,0,1.5,0.67,1.5,1.5
				C155.03,50.89,154.36,51.56,153.53,51.56z"/>
		</g>
		<g>
			<path fill="#BBBDBF" d="M153.53,60.56h-16c-0.83,0-1.5-0.67-1.5-1.5c0-0.83,0.67-1.5,1.5-1.5h16c0.83,0,1.5,0.67,1.5,1.5
				C155.03,59.89,154.36,60.56,153.53,60.56z"/>
		</g>
		<g>
			<path fill="#BBBDBF" d="M153.53,68.56h-16c-0.83,0-1.5-0.67-1.5-1.5c0-0.83,0.67-1.5,1.5-1.5h16c0.83,0,1.5,0.67,1.5,1.5
				C155.03,67.89,154.36,68.56,153.53,68.56z"/>
		</g>
		<g>
			<path fill="#BBBDBF" d="M153.53,77.56h-16c-0.83,0-1.5-0.67-1.5-1.5s0.67-1.5,1.5-1.5h16c0.83,0,1.5,0.67,1.5,1.5
				S154.36,77.56,153.53,77.56z"/>
		</g>
		<g>
			<path fill="#BBBDBF" d="M153.53,86.56h-16c-0.83,0-1.5-0.67-1.5-1.5s0.67-1.5,1.5-1.5h16c0.83,0,1.5,0.67,1.5,1.5
				S154.36,86.56,153.53,86.56z"/>
		</g>
	</g>
</g>
</svg>
