<?xml version="1.0" encoding="utf-8"?>
<!-- Generator: Adobe Illustrator 16.0.0, SVG Export Plug-In . SVG Version: 6.00 Build 0)  -->
<!DOCTYPE svg PUBLIC "-//W3C//DTD SVG 1.1//EN" "http://www.w3.org/Graphics/SVG/1.1/DTD/svg11.dtd">
<svg version="1.1" xmlns="http://www.w3.org/2000/svg" xmlns:xlink="http://www.w3.org/1999/xlink" x="0px" y="0px"
	 width="181.19px" height="165.76px" viewBox="0 0 181.19 165.76" enable-background="new 0 0 181.19 165.76" xml:space="preserve">
<g id="cushion">
	<g>
		<g>
			<line fill="none" stroke="#777777" stroke-miterlimit="10" x1="15.04" y1="25.37" x2="15.04" y2="140.55"/>
			<g>
				<polygon fill="#777777" points="15.04,18.31 10.98,28.26 15.04,25.9 19.11,28.26 				"/>
			</g>
			<g>
				<polygon fill="#777777" points="15.04,147.61 10.98,137.66 15.04,140.02 19.11,137.66 				"/>
			</g>
		</g>
	</g>
	<g>
		<g>
			<line fill="none" stroke="#777777" stroke-miterlimit="10" x1="39.81" y1="4.22" x2="154.98" y2="4.22"/>
			<g>
				<polygon fill="#777777" points="32.75,4.22 42.7,8.29 40.34,4.22 42.7,0.16 				"/>
			</g>
			<g>
				<polygon fill="#777777" points="162.04,4.22 152.09,8.29 154.46,4.22 152.09,0.16 				"/>
			</g>
		</g>
	</g>
	<g>
		<path fill="#BBBDBF" d="M34.45,147.61c-0.45,0-0.89-0.18-1.21-0.5c-0.36-0.37-0.55-0.88-0.49-1.39
			c0.05-0.47,4.87-47.24,4.87-62.76c0-15.51-4.82-62.28-4.87-62.76c-0.05-0.51,0.13-1.02,0.49-1.39c0.36-0.37,0.87-0.55,1.39-0.49
			c0.47,0.05,47.24,4.87,62.76,4.87c15.51,0,62.28-4.82,62.75-4.87c0.52-0.06,1.02,0.13,1.39,0.49c0.37,0.36,0.55,0.88,0.49,1.39
			c-0.05,0.47-4.87,47.24-4.87,62.76c0,14.89,4.44,58.58,4.84,62.48c0.04,0.14,0.06,0.27,0.06,0.43c0,0.95-0.77,1.69-1.71,1.69
			c-0.01,0-0.01,0-0.02,0c-0.06,0-0.12,0.02-0.18,0.02c-0.47-0.05-47.25-4.86-62.75-4.86c-15.51,0-62.29,4.83-62.76,4.88
			C34.57,147.6,34.51,147.61,34.45,147.61z M36.37,21.95c0.95,9.41,4.67,47.04,4.67,61.01c0,13.98-3.72,51.6-4.67,61.01
			c9.41-0.95,47.04-4.67,61.01-4.67c13.97,0,51.6,3.72,61.01,4.67c-0.95-9.41-4.67-47.04-4.67-61.01c0-13.97,3.72-51.6,4.67-61.01
			c-9.41,0.95-47.04,4.67-61.01,4.67C83.41,26.62,45.79,22.9,36.37,21.95z"/>
	</g>
</g>
</svg>
