<?xml version="1.0" encoding="utf-8"?>
<!-- Generator: Adobe Illustrator 16.0.0, SVG Export Plug-In . SVG Version: 6.00 Build 0)  -->
<!DOCTYPE svg PUBLIC "-//W3C//DTD SVG 1.1//EN" "http://www.w3.org/Graphics/SVG/1.1/DTD/svg11.dtd">
<svg version="1.1" xmlns="http://www.w3.org/2000/svg" xmlns:xlink="http://www.w3.org/1999/xlink" x="0px" y="0px" width="60px"
	 height="60px" viewBox="-13.5 -0.5 60 60" enable-background="new -13.5 -0.5 60 60" xml:space="preserve">
<g id="sillas" xmlns:sketch="http://www.bohemiancoding.com/sketch/ns" display="none">
	<g display="inline">
		<path fill="none" stroke="#C5C5C5" d="M2.41,58.95V36.8h27.55v22.15"/>
		<path fill="none" stroke="#C5C5C5" d="M0.29,32h32.07"/>
		<path fill="none" stroke="#C5C5C5" d="M8.19,32.39V2.8h15.98v29.6"/>
	</g>
</g>
<g id="mesas" display="none">
	<g display="inline">
		<path fill="none" stroke="#C5C5C5" d="M-7.24,47.47V16.27h47.55v31.21"/>
		<path fill="none" stroke="#C5C5C5" d="M-9.29,11.52h51.57"/>
	</g>
</g>
<g id="taburetes" display="none">
	<g display="inline">
		<path fill="none" stroke="#C5C5C5" d="M2.58,59V16.79h27.55V59"/>
		<path fill="none" stroke="#C5C5C5" d="M0.46,12.05h32.07"/>
		<path fill="none" stroke="#C5C5C5" d="M8.36,12.05v-9.2h15.98v9.2"/>
	</g>
</g>
<g id="lamparas" display="none">
	<g transform="translate(0 0)" display="inline">
		<path fill="none" stroke="#C5C5C5" d="M9.25,0.76h14.5L31,25.43H2L9.25,0.76z"/>
		<path fill="none" stroke="#C5C5C5" d="M16.5,25.43v32.98"/>
		<path fill="none" stroke="#C5C5C5" d="M24,25.43v10.13"/>
		<path fill="none" stroke="#C5C5C5" d="M7.5,58.17h18"/>
		<circle fill="#C5C5C5" cx="24" cy="36.43" r="1.77"/>
	</g>
</g>
<g id="sofas" display="none">
	<path display="inline" fill="none" stroke="#C5C5C5" d="M-12.5,50.04h58V25.21c0-1-6.97-1-6.97,0v4.79H-5.42v-4.8
		c0-1-7.08-1.04-7.08,0V50.04z"/>
	<polyline display="inline" fill="none" stroke="#C5C5C5" points="-8.91,24.21 -8.91,14.96 42.02,14.96 42.02,24.21 	"/>
	<line display="inline" fill="none" stroke="#C5C5C5" x1="16.5" y1="14.96" x2="16.5" y2="30.01"/>
	<line display="inline" fill="none" stroke="#C5C5C5" x1="-5.75" y1="38.32" x2="38.6" y2="38.32"/>
</g>
<g id="cojines" display="none">
	<polygon display="inline" fill="none" stroke="#C5C5C5" points="35.75,13.48 35.77,13.51 39,10.28 35.72,7 32.49,10.23 
		32.52,10.25 0.48,10.25 -2.77,7 -6,10.23 -2.75,13.48 -2.75,45.52 -2.77,45.5 -6,48.72 -2.72,52 0.51,48.77 0.48,48.75 
		32.52,48.75 35.77,52 39,48.77 35.75,45.52 	"/>
</g>
<g id="alfombras" display="none">
	<rect x="-8.18" y="14.52" display="inline" fill="none" stroke="#C5C5C5" width="49.37" height="29.95"/>
	<line display="inline" fill="none" stroke="#C5C5C5" x1="-10.27" y1="14.52" x2="-13.5" y2="14.52"/>
	<line display="inline" fill="none" stroke="#C5C5C5" x1="-10.27" y1="18.8" x2="-13.5" y2="18.8"/>
	<line display="inline" fill="none" stroke="#C5C5C5" x1="-10.27" y1="23.08" x2="-13.5" y2="23.08"/>
	<line display="inline" fill="none" stroke="#C5C5C5" x1="-10.27" y1="27.36" x2="-13.5" y2="27.36"/>
	<line display="inline" fill="none" stroke="#C5C5C5" x1="-10.27" y1="31.64" x2="-13.5" y2="31.64"/>
	<line display="inline" fill="none" stroke="#C5C5C5" x1="-10.27" y1="35.92" x2="-13.5" y2="35.92"/>
	<line display="inline" fill="none" stroke="#C5C5C5" x1="-10.27" y1="40.2" x2="-13.5" y2="40.2"/>
	<line display="inline" fill="none" stroke="#C5C5C5" x1="-10.27" y1="44.48" x2="-13.5" y2="44.48"/>
	<line display="inline" fill="none" stroke="#C5C5C5" x1="46.5" y1="14.52" x2="43.27" y2="14.52"/>
	<line display="inline" fill="none" stroke="#C5C5C5" x1="46.5" y1="18.8" x2="43.27" y2="18.8"/>
	<line display="inline" fill="none" stroke="#C5C5C5" x1="46.5" y1="23.08" x2="43.27" y2="23.08"/>
	<line display="inline" fill="none" stroke="#C5C5C5" x1="46.5" y1="27.36" x2="43.27" y2="27.36"/>
	<line display="inline" fill="none" stroke="#C5C5C5" x1="46.5" y1="31.64" x2="43.27" y2="31.64"/>
	<line display="inline" fill="none" stroke="#C5C5C5" x1="46.5" y1="35.92" x2="43.27" y2="35.92"/>
	<line display="inline" fill="none" stroke="#C5C5C5" x1="46.5" y1="40.2" x2="43.27" y2="40.2"/>
	<line display="inline" fill="none" stroke="#C5C5C5" x1="46.5" y1="44.48" x2="43.27" y2="44.48"/>
</g>
<g id="cuadros" display="none">
	<rect x="-6.5" y="14.42" display="inline" fill="none" stroke="#C5C5C5" width="46" height="30.15"/>
	<path display="inline" fill="none" stroke="#C5C5C5" d="M44.34,45.7c0.21-0.28,0.34-0.63,0.34-1.01c0-0.94-0.76-1.7-1.7-1.7
		c-0.01,0-0.03,0-0.04,0V15.94c0.01,0,0.02,0,0.04,0c0.94,0,1.7-0.76,1.7-1.7c0-0.38-0.13-0.73-0.34-1.01
		c0.75-0.46,1.26-1.28,1.26-2.23c0-1.45-1.17-2.62-2.63-2.62c-0.95,0-1.77,0.5-2.23,1.26c-0.28-0.21-0.63-0.34-1.01-0.34
		c-0.92,0-1.66,0.73-1.7,1.64H-4.76c-0.03-0.91-0.78-1.64-1.7-1.64c-0.38,0-0.72,0.13-1.01,0.34C-7.93,8.89-8.75,8.38-9.7,8.38
		c-1.45,0-2.62,1.17-2.62,2.62c0,0.95,0.51,1.77,1.26,2.23c-0.21,0.28-0.34,0.63-0.34,1.01c0,0.87,0.65,1.57,1.48,1.68v27.09
		c-0.83,0.11-1.48,0.82-1.48,1.68c0,0.38,0.13,0.73,0.34,1.01c-0.75,0.46-1.26,1.29-1.26,2.23c0,1.45,1.17,2.62,2.63,2.62
		c0.95,0,1.77-0.5,2.23-1.26c0.28,0.21,0.63,0.34,1.01,0.34c0.9,0,1.63-0.7,1.69-1.58h42.81c0.07,0.88,0.79,1.58,1.69,1.58
		c0.38,0,0.72-0.13,1.01-0.34c0.46,0.75,1.28,1.26,2.23,1.26c1.45,0,2.63-1.17,2.63-2.62C45.59,46.98,45.09,46.16,44.34,45.7z"/>
</g>
<g id="vinilos" display="none">
	<g display="inline">
		<path fill="none" stroke="#C5C5C5" d="M35.88,37.12c0,0-1.98,6.35-6,10.38c-3.98,3.98-10.38,6-10.38,6"/>
		<polygon fill="none" stroke="#C5C5C5" points="-2.88,4.12 -2.88,53.5 19.5,53.5 22.83,41.46 35.88,37.12 35.88,4.12 		"/>
	</g>
</g>
<g id="almacenaje">
	<rect x="0.46" y="9.2" fill="none" stroke="#C5C5C5" width="32.09" height="41.79"/>
	<line fill="none" stroke="#C5C5C5" x1="0.46" y1="4.5" x2="32.54" y2="4.5"/>
	<line fill="none" stroke="#C5C5C5" x1="2.58" y1="22.83" x2="30.42" y2="22.83"/>
	<line fill="none" stroke="#C5C5C5" x1="2.58" y1="37.17" x2="30.42" y2="37.17"/>
	<line fill="none" stroke="#C5C5C5" x1="14.83" y1="16.17" x2="18.17" y2="16.17"/>
	<line fill="none" stroke="#C5C5C5" x1="14.83" y1="30.1" x2="18.17" y2="30.1"/>
	<line fill="none" stroke="#C5C5C5" x1="14.83" y1="44.03" x2="18.17" y2="44.03"/>
</g>
</svg>
