<svg xmlns="http://www.w3.org/2000/svg" width="60" height="60" viewBox="-13.5 -0.5 60 60"><g fill="none"><path d="M20.04 52.27l.4-.37c-.12.02-.23.03-.35.05l-.05.32zM38.97 32.94c-.03.18-.05.36-.08.53.36-.38.56-.61.56-.61l-.48.08z"/><path stroke="#C5C5C5" d="M16.48 47.28C6.67 47.28-1.3 39.32-1.3 29.5s7.96-17.78 17.78-17.78 17.78 7.96 17.78 17.78c0 1.49-.2 2.93-.55 4.32l5.25-.87c.17-1.12.29-2.27.29-3.44 0-12.58-10.2-22.77-22.77-22.77C3.91 6.73-6.29 16.92-6.29 29.5s10.2 22.77 22.77 22.77c1.23 0 2.43-.12 3.61-.31l.88-5.27c-1.44.37-2.93.59-4.49.59z"/><path stroke="#C5C5C5" d="M16.48 11.72C6.67 11.72-1.3 19.68-1.3 29.5s7.96 17.78 17.78 17.78c1.55 0 3.05-.22 4.48-.59l1.84-11.06 10.91-1.81c.35-1.38.55-2.82.55-4.32.01-9.82-7.96-17.78-17.78-17.78zM20.44 51.91l18.53-18.97"/></g></svg>