<?xml version="1.0" encoding="utf-8"?>
<!-- Generator: Adobe Illustrator 16.0.0, SVG Export Plug-In . SVG Version: 6.00 Build 0)  -->
<!DOCTYPE svg PUBLIC "-//W3C//DTD SVG 1.1//EN" "http://www.w3.org/Graphics/SVG/1.1/DTD/svg11.dtd">
<svg version="1.1" xmlns="http://www.w3.org/2000/svg" xmlns:xlink="http://www.w3.org/1999/xlink" x="0px" y="0px" width="60px"
	 height="60px" viewBox="-13.5 -0.5 60 60" enable-background="new -13.5 -0.5 60 60" xml:space="preserve">
<g id="sillas" xmlns:sketch="http://www.bohemiancoding.com/sketch/ns" display="none">
	<title>Sillas icon</title>
	<desc>Created with Sketch.</desc>
	<g display="inline">
		<path fill="none" stroke="#C5C5C5" d="M2.41,58.95V36.8h27.55v22.15"/>
		<path fill="none" stroke="#C5C5C5" d="M0.29,32h32.07"/>
		<path fill="none" stroke="#C5C5C5" d="M8.19,32.39V2.8h15.98v29.6"/>
	</g>
</g>
<g id="mesas" display="none">
	<g display="inline">
		<path fill="none" stroke="#C5C5C5" d="M-7.24,47.47V16.27h47.55v31.21"/>
		<path fill="none" stroke="#C5C5C5" d="M-9.29,11.52h51.57"/>
	</g>
</g>
<g id="taburetes" display="none">
	<g display="inline">
		<path fill="none" stroke="#C5C5C5" d="M2.58,59V16.79h27.55V59"/>
		<path fill="none" stroke="#C5C5C5" d="M0.46,12.05h32.07"/>
		<path fill="none" stroke="#C5C5C5" d="M8.36,12.05v-9.2h15.98v9.2"/>
	</g>
</g>
<g id="lamparas" display="none">
	<g transform="translate(0 0)" display="inline">
		<path fill="none" stroke="#C5C5C5" d="M9.25,0.76h14.5L31,25.43H2L9.25,0.76z"/>
		<path fill="none" stroke="#C5C5C5" d="M16.5,25.43v32.98"/>
		<path fill="none" stroke="#C5C5C5" d="M24,25.43v10.13"/>
		<path fill="none" stroke="#C5C5C5" d="M7.5,58.17h18"/>
		<circle fill="#C5C5C5" cx="24" cy="36.43" r="1.77"/>
	</g>
</g>
<g id="sofas">
	<path fill="none" stroke="#C5C5C5" d="M-12.5,50.04h58V25.21c0-1-6.97-1-6.97,0v4.79H-5.42v-4.8c0-1-7.08-1.04-7.08,0V50.04z"/>
	<polyline fill="none" stroke="#C5C5C5" points="-8.91,24.21 -8.91,14.96 42.02,14.96 42.02,24.21 	"/>
	<line fill="none" stroke="#C5C5C5" x1="16.5" y1="14.96" x2="16.5" y2="30.01"/>
	<line fill="none" stroke="#C5C5C5" x1="-5.75" y1="38.32" x2="38.6" y2="38.32"/>
</g>
</svg>
