<svg xmlns="http://www.w3.org/2000/svg" width="60" height="60" viewBox="-13.5 -0.5 60 60"><g fill="none" stroke="#C5C5C5"><path d="M-6.5 14.42h46v30.15h-46z"/><path d="M44.34 45.7c.21-.28.34-.63.34-1.01 0-.94-.76-1.7-1.7-1.7h-.04V15.94h.04c.94 0 1.7-.76 1.7-1.7 0-.38-.13-.73-.34-1.01.75-.46 1.26-1.28 1.26-2.23 0-1.45-1.17-2.62-2.63-2.62-.95 0-1.77.5-2.23 1.26-.28-.21-.63-.34-1.01-.34-.92 0-1.66.73-1.7 1.64H-4.76c-.03-.91-.78-1.64-1.7-1.64-.38 0-.72.13-1.01.34-.46-.75-1.28-1.26-2.23-1.26-1.45 0-2.62 1.17-2.62 2.62 0 .95.51 1.77 1.26 2.23-.21.28-.34.63-.34 1.01 0 .87.65 1.57 1.48 1.68v27.09c-.83.11-1.48.82-1.48 1.68 0 .38.13.73.34 1.01-.75.46-1.26 1.29-1.26 2.23 0 1.45 1.17 2.62 2.63 2.62.95 0 1.77-.5 2.23-1.26.28.21.63.34 1.01.34.9 0 1.63-.7 1.69-1.58h42.81c.07.88.79 1.58 1.69 1.58.38 0 .72-.13 1.01-.34.46.75 1.28 1.26 2.23 1.26 1.45 0 2.63-1.17 2.63-2.62-.02-.95-.52-1.77-1.27-2.23z"/></g></svg>