<svg width="29" height="30" viewBox="0 0 29 30" xmlns="http://www.w3.org/2000/svg" xmlns:sketch="http://www.bohemiancoding.com/sketch/ns"><title>Facebook</title><desc>Created with Sketch.</desc><path d="M15.412 30h-13.819c-.88 0-1.593-.721-1.593-1.61v-25.956c0-.889.713-1.61 1.593-1.61h25.669c.879 0 1.592.721 1.592 1.61v25.956c0 .889-.713 1.61-1.592 1.61h-7.353v-11.299h3.751l.562-4.403h-4.312v-2.811c0-1.275.35-2.144 2.158-2.144l2.306-.001v-3.938c-.399-.054-1.768-.174-3.36-.174-3.325 0-5.601 2.052-5.601 5.82v3.247h-3.76v4.403h3.76v11.299z" sketch:type="MSShapeGroup" fill="#4A4A4A"/></svg>