<svg width="48" height="31" viewBox="0 0 48 31" xmlns="http://www.w3.org/2000/svg" xmlns:sketch="http://www.bohemiancoding.com/sketch/ns"><title>GooglePlus</title><desc>Created with Sketch.</desc><path d="M42.537 12.738v-5.371h-3.757v5.371h-5.41v3.837h5.41v5.525h3.757v-5.525h5.26v-3.837h-5.26zm-27.351-.307v6.139s5.832-.008 8.206-.008c-1.286 3.98-3.285 6.147-8.206 6.147-4.98 0-8.867-4.123-8.867-9.208s3.887-9.208 8.867-9.208c2.633 0 4.333.945 5.893 2.262 1.249-1.275 1.144-1.457 4.321-4.52-2.697-2.506-6.28-4.034-10.214-4.034-8.383 0-15.179 6.94-15.179 15.5 0 8.56 6.796 15.5 15.179 15.5 12.53 0 15.593-11.142 14.577-18.569h-14.577z" sketch:type="MSShapeGroup" fill="#4A4A4A"/></svg>