<svg width="31" height="31" viewBox="0 0 31 31" xmlns="http://www.w3.org/2000/svg" xmlns:sketch="http://www.bohemiancoding.com/sketch/ns"><title>Fill 11</title><desc>Created with Sketch.</desc><path d="M15.569 0c-8.466 0-15.329 6.939-15.329 15.5 0 6.566 4.04 12.175 9.742 14.433-.134-1.226-.255-3.108.054-4.447.278-1.209 1.797-7.704 1.797-7.704s-.459-.928-.459-2.301c0-2.155 1.236-3.765 2.774-3.765 1.308 0 1.94.993 1.94 2.184 0 1.33-.837 3.318-1.269 5.161-.361 1.543.765 2.802 2.27 2.802 2.725 0 4.819-2.905 4.819-7.098 0-3.711-2.638-6.307-6.404-6.307-4.361 0-6.921 3.308-6.921 6.727 0 1.332.507 2.761 1.14 3.537.126.154.144.288.106.445l-.425 1.758c-.067.283-.222.344-.513.207-1.915-.902-3.112-3.732-3.112-6.005 0-4.889 3.513-9.379 10.129-9.379 5.317 0 9.45 3.831 9.45 8.952 0 5.342-3.331 9.641-7.955 9.641-1.553 0-3.013-.817-3.513-1.781l-.955 3.685c-.346 1.346-1.28 3.033-1.906 4.063 1.435.45 2.959.692 4.539.692 8.466 0 15.329-6.94 15.329-15.5 0-8.561-6.863-15.5-15.329-15.5" sketch:type="MSShapeGroup" fill="#4A4A4A"/></svg>