<svg width="35" height="30" viewBox="0 0 35 30" xmlns="http://www.w3.org/2000/svg" xmlns:sketch="http://www.bohemiancoding.com/sketch/ns"><title>Twitter</title><desc>Created with Sketch.</desc><path d="M34.563 4.278c-1.259.586-2.615.982-4.036 1.159 1.452-.91 2.566-2.354 3.091-4.074-1.36.843-2.862 1.456-4.467 1.785-1.279-1.431-3.107-2.324-5.131-2.324-3.88 0-7.027 3.298-7.027 7.365 0 .577.06 1.138.181 1.677-5.842-.308-11.021-3.237-14.491-7.698-.605 1.092-.951 2.358-.951 3.707 0 2.554 1.241 4.809 3.127 6.13-1.15-.036-2.236-.371-3.186-.919v.091c0 3.57 2.423 6.548 5.641 7.222-.589.173-1.211.259-1.852.259-.453 0-.895-.044-1.323-.131.895 2.925 3.489 5.056 6.566 5.112-2.405 1.977-5.438 3.155-8.731 3.155-.567 0-1.128-.034-1.677-.101 3.111 2.086 6.808 3.306 10.776 3.306 12.932 0 20.001-11.222 20.001-20.956 0-.32-.006-.641-.018-.955 1.374-1.039 2.566-2.335 3.505-3.812" sketch:type="MSShapeGroup" fill="#4A4A4A"/></svg>