<svg xmlns="http://www.w3.org/2000/svg" width="35" height="30" viewBox="0 0 35 30"><path fill="#4A4A4A" d="M0 16.846V13.1c.015-.08.038-.16.043-.242.08-1.263.152-2.527.235-3.79.118-1.768.727-3.338 1.924-4.653C2.954 3.588 3.872 3.063 5.02 3c.873-.047 1.745-.14 2.62-.178 2-.086 4-.18 6-.215 5.59-.096 11.176.046 16.753.43.958.065 1.782.443 2.463 1.114 1.01.994 1.55 2.24 1.732 3.61.18 1.326.226 2.67.328 4.005.03.37.054.74.08 1.11v3.857c-.014.08-.035.162-.04.245-.08 1.273-.167 2.545-.23 3.818-.08 1.678-.663 3.16-1.706 4.457-.694.86-1.548 1.54-2.667 1.71-.9.138-1.815.175-2.727.21-2.438.092-4.876.195-7.314.23-5.078.068-10.15-.06-15.218-.377-1.04-.066-1.898-.477-2.636-1.18C1.318 24.757.646 23.402.415 21.87c-.197-1.303-.23-2.63-.334-3.95-.03-.356-.054-.715-.08-1.074zm24.062-1.927L13.135 8.65v12.534c3.647-2.092 7.256-4.163 10.927-6.267z"/></svg>