<?xml version="1.0" encoding="utf-8"?>
<!-- Generator: Adobe Illustrator 16.0.0, SVG Export Plug-In . SVG Version: 6.00 Build 0)  -->
<!DOCTYPE svg PUBLIC "-//W3C//DTD SVG 1.1//EN" "http://www.w3.org/Graphics/SVG/1.1/DTD/svg11.dtd">
<svg version="1.1" id="Layer_1" xmlns:sketch="http://www.bohemiancoding.com/sketch/ns"
	 xmlns="http://www.w3.org/2000/svg" xmlns:xlink="http://www.w3.org/1999/xlink" x="0px" y="0px" width="35px" height="30px"
	 viewBox="0 0 35 30" enable-background="new 0 0 35 30" xml:space="preserve">
<g id="LZhoaO.tif">
	<g>
		<path fill="#4A4A4A" d="M0,16.846c0-1.25,0-2.498,0-3.746c0.015-0.081,0.038-0.161,0.043-0.242
			c0.079-1.263,0.152-2.527,0.235-3.791C0.396,7.3,1.005,5.73,2.202,4.415C2.954,3.588,3.871,3.063,5.02,3.001
			c0.873-0.048,1.745-0.142,2.619-0.179c2-0.086,4-0.181,6.002-0.215c5.59-0.096,11.175,0.046,16.752,0.429
			c0.958,0.066,1.782,0.444,2.463,1.115c1.009,0.993,1.549,2.239,1.732,3.609c0.179,1.326,0.226,2.67,0.328,4.005
			c0.029,0.37,0.054,0.74,0.08,1.11c0,1.285,0,2.571,0,3.857c-0.014,0.081-0.035,0.162-0.04,0.245
			c-0.079,1.273-0.167,2.545-0.229,3.818c-0.081,1.678-0.664,3.16-1.707,4.457c-0.694,0.861-1.548,1.539-2.667,1.709
			c-0.899,0.139-1.815,0.176-2.727,0.211c-2.438,0.092-4.876,0.195-7.314,0.23c-5.078,0.068-10.15-0.061-15.218-0.377
			c-1.041-0.066-1.898-0.477-2.636-1.18c-1.139-1.088-1.812-2.443-2.043-3.975c-0.197-1.303-0.229-2.631-0.334-3.949
			C0.051,17.564,0.026,17.205,0,16.846z M24.062,14.919c-3.671-2.105-7.282-4.177-10.927-6.267c0,4.203,0,8.342,0,12.534
			C16.782,19.094,20.391,17.023,24.062,14.919z"/>
	</g>
</g>
</svg>
