<svg width="28" height="21" viewBox="0 0 28 21" xmlns="http://www.w3.org/2000/svg"><title>Fill 189</title><g fill="none" fill-rule="evenodd"><path fill="#F2F2F2" d="M-1117-46H323V66h-1440z"/><path d="M20.395 18.283c-.226 0-.41.183-.41.41 0 .82-.666 1.487-1.486 1.487s-1.486-.667-1.486-1.487c0-.227-.183-.41-.41-.41-.225 0-.408.183-.408.41C16.196 19.965 17.23 21 18.5 21s2.304-1.035 2.304-2.307c0-.227-.183-.41-.41-.41zm7.454-2.34l-2.495-2.035V8.003c0-3.216-2.213-5.974-5.31-6.683v-.15c0-.645-.523-1.17-1.167-1.17h-.757c-.643 0-1.166.525-1.166 1.17v.153c-3.088.715-5.295 3.47-5.295 6.68v5.904L9.15 15.942c-.096.077-.152.195-.152.318v1.23c0 .226.184.41.41.41h18.18c.227 0 .41-.184.41-.41v-1.23c0-.123-.055-.24-.15-.317zm-.67 1.137H9.82v-.624l2.506-2.035c.095-.076.152-.194.152-.318v-6.1c0-2.926 2.085-5.425 4.957-5.94.194-.035.337-.205.337-.403v-.49c0-.193.156-.35.35-.35h.756c.192 0 .35.157.35.35v.485c0 .2.14.37.337.404 2.88.51 4.97 3.01 4.97 5.943v6.1c0 .123.056.24.152.318l2.494 2.035v.625z" fill="#DB383B"/></g></svg>