<?xml version="1.0" encoding="UTF-8" standalone="no"?>
<svg width="28px" height="21px" viewBox="0 0 28 21" version="1.1" xmlns="http://www.w3.org/2000/svg" xmlns:xlink="http://www.w3.org/1999/xlink" xmlns:sketch="http://www.bohemiancoding.com/sketch/ns">
    <!-- Generator: Sketch 3.4.2 (15857) - http://www.bohemiancoding.com/sketch -->
    <title>Fill 189</title>
    <desc>Created with Sketch.</desc>
    <defs></defs>
    <g id="Page-1" stroke="none" stroke-width="1" fill="none" fill-rule="evenodd" sketch:type="MSPage">
        <g id="Desktop-HD" sketch:type="MSArtboardGroup" transform="translate(-1117.000000, -94.000000)">
            <g id="Header" sketch:type="MSLayerGroup">
                <rect id="Rectangle-2" fill="#F2F2F2" sketch:type="MSShapeGroup" x="0" y="48" width="1440" height="112"></rect>
                <path d="M1137.39531,112.282649 C1137.16941,112.282649 1136.98553,112.466394 1136.98553,112.692794 C1136.98553,113.512539 1136.31874,114.179709 1135.49918,114.179709 C1134.68016,114.179709 1134.01447,113.512539 1134.01447,112.692794 C1134.01447,112.466394 1133.83114,112.282649 1133.60469,112.282649 C1133.37934,112.282649 1133.196,112.466394 1133.196,112.692794 C1133.196,113.964793 1134.22891,115 1135.49918,115 C1136.76945,115 1137.804,113.964793 1137.804,112.692794 C1137.804,112.466394 1137.62121,112.282649 1137.39531,112.282649 L1137.39531,112.282649 Z M1144.8494,109.942632 L1142.3547,107.907763 L1142.3547,102.00276 C1142.3547,98.7866722 1140.14155,96.0294003 1137.04555,95.319575 L1137.04555,95.1697352 C1137.04555,94.5249863 1136.52173,94 1135.87841,94 L1135.12105,94 C1134.47718,94 1133.95391,94.5249863 1133.95391,95.1697352 L1133.95391,95.323403 C1130.86554,96.03815 1128.65949,98.7937814 1128.65949,102.00276 L1128.65949,107.906669 L1126.15169,109.941538 C1126.05566,110.019192 1126,110.136767 1126,110.260358 L1126,111.489701 C1126,111.716101 1126.18388,111.899846 1126.40978,111.899846 L1144.59022,111.899846 C1144.81666,111.899846 1145,111.716101 1145,111.489701 L1145,110.260358 C1145,110.136767 1144.94489,110.019739 1144.8494,109.942632 L1144.8494,109.942632 Z M1144.18098,111.079555 L1126.81902,111.079555 L1126.81902,110.456134 L1129.32627,108.421265 C1129.42121,108.343611 1129.47796,108.226036 1129.47796,108.102445 L1129.47796,102.00276 C1129.47796,99.0759616 1131.56288,96.5773548 1134.43462,96.0622119 C1134.62942,96.026666 1134.77238,95.8571391 1134.77238,95.6586287 L1134.77238,95.1697352 C1134.77238,94.9772402 1134.92789,94.8202911 1135.12105,94.8202911 L1135.87841,94.8202911 C1136.07047,94.8202911 1136.22708,94.9772402 1136.22708,95.1697352 L1136.22708,95.6553475 C1136.22708,95.8544048 1136.36894,96.0250254 1136.56483,96.0594776 C1139.44531,96.5702456 1141.53623,99.0693992 1141.53623,102.00276 L1141.53623,108.102445 C1141.53623,108.226036 1141.59134,108.343064 1141.68683,108.420718 L1144.18098,110.45504 L1144.18098,111.079555 L1144.18098,111.079555 Z" id="Fill-189" fill="#DB383B" sketch:type="MSShapeGroup"></path>
            </g>
        </g>
    </g>
</svg>