<svg width="20" height="21" viewBox="0 0 20 21" xmlns="http://www.w3.org/2000/svg" xmlns:sketch="http://www.bohemiancoding.com/sketch/ns"><title>Fill 128</title><desc>Created with Sketch.</desc><path d="M18.714 9.693c-.173-.67-.432-1.267-.771-1.775-.054-.095-.184-.216-.497-.216l-.303.031c-.141-3.845-3.875-6.692-7.223-6.692-3.346 0-7.077 2.843-7.222 6.684l-.258-.023c-.311 0-.441.124-.494.211-.341.51-.601 1.108-.775 1.78-.2.785-.269 1.618-.204 2.473.063.857.256 1.669.572 2.415.269.637.616 1.189 1.029 1.64.055.068.138.109.226.109l.023-.001.451-.034c.212-.016.38-.118.472-.274.315-.008.596-.128.792-.34.213-.23.315-.552.288-.908l-.176-2.348-.276-3.684c-.05-.653-.468-1.005-1.09-.929.092-3.553 3.544-6.192 6.64-6.192 3.094 0 6.542 2.635 6.64 6.184-.601-.055-.996.3-1.043.937-.04.539-.312 4.166-.453 6.032-.026.356.076.679.289.908.197.212.476.332.792.339.071.12.187.206.332.248-.639.645-1.578 1.437-2.687 1.809-.215-.416-.645-.705-1.145-.705-.713 0-1.292.58-1.292 1.292 0 .713.58 1.292 1.292 1.292.713 0 1.293-.58 1.293-1.292l-.003-.024c1.794-.586 3.145-2.139 3.664-2.738l.056-.099c.267-.362.5-.771.692-1.225.315-.744.508-1.557.572-2.414.065-.858-.003-1.69-.205-2.474zm-15.263-1.315c.108 0 .308 0 .339.408l.276 3.684.176 2.348c.015.194-.033.36-.135.47-.094.101-.232.154-.401.154l-.089-.004-.061-.009c-.079-.007-.168.019-.228.074-.06.055-.101.132-.101.214l-.31.023c-.334-.386-.617-.852-.843-1.385-.291-.688-.469-1.438-.528-2.232-.06-.782.005-1.572.187-2.285.151-.586.374-1.108.663-1.553.053-.005.163.002.305.029.062.117.199.18.331.144l.186-.047.233-.034zm9.193 11.001c-.392 0-.712-.319-.712-.712 0-.392.319-.712.712-.712.393 0 .712.319.712.712 0 .392-.319.712-.712.712zm5.695-7.255c-.059.795-.237 1.546-.527 2.232-.226.534-.51 1-.845 1.386l-.323-.022c0-.082-.034-.159-.095-.215-.053-.049-.123-.075-.195-.075l-.027.002-.043.005c-.215.026-.394-.026-.507-.147-.102-.11-.15-.276-.135-.47.141-1.866.413-5.493.453-6.032.031-.409.231-.409.338-.409l.235.034.185.046c.131.034.268-.027.33-.144.131-.026.249-.034.305-.029.289.444.511.966.662 1.553.183.712.248 1.502.188 2.286z" sketch:type="MSShapeGroup" stroke="#fff" fill="#fff"/></svg>