<svg width="20" height="21" viewBox="0 0 20 21" xmlns="http://www.w3.org/2000/svg"><title>Fill 128</title><path d="M18.714 9.693c-.173-.67-.432-1.267-.77-1.775-.055-.095-.185-.216-.498-.216l-.303.03c-.14-3.844-3.875-6.69-7.223-6.69-3.346 0-7.077 2.842-7.222 6.683l-.258-.023c-.31 0-.44.124-.494.21-.34.51-.6 1.11-.775 1.78-.2.786-.268 1.62-.203 2.474.063.857.256 1.67.572 2.415.268.638.615 1.19 1.028 1.64.055.07.138.11.226.11h.023l.45-.035c.213-.016.38-.118.473-.274.315-.007.596-.127.792-.34.213-.23.315-.55.288-.907l-.176-2.348-.276-3.684c-.05-.652-.468-1.004-1.09-.928C3.37 4.26 6.822 1.62 9.918 1.62c3.094 0 6.542 2.635 6.64 6.184-.6-.055-.996.3-1.043.937l-.453 6.033c-.026.356.076.68.29.908.196.213.475.333.79.34.072.12.188.206.333.248-.64.645-1.578 1.437-2.687 1.81-.215-.417-.645-.706-1.145-.706-.713 0-1.292.58-1.292 1.292 0 .713.58 1.292 1.293 1.292s1.293-.58 1.293-1.292l-.003-.024c1.794-.586 3.145-2.14 3.664-2.738l.056-.1c.267-.36.5-.77.692-1.224.315-.744.508-1.557.572-2.414.065-.858-.003-1.69-.205-2.474zM3.45 8.378c.11 0 .31 0 .34.408l.276 3.684.176 2.348c.015.194-.033.36-.135.47-.094.1-.232.154-.4.154l-.09-.004-.06-.01c-.08-.006-.17.02-.23.075-.06.055-.1.132-.1.214l-.31.023c-.334-.386-.617-.852-.843-1.385-.29-.688-.47-1.438-.528-2.232-.06-.782.005-1.572.187-2.285.15-.586.374-1.108.663-1.553.053-.005.163.002.305.03.063.116.2.18.332.143l.186-.047.233-.033zm9.194 11c-.392 0-.712-.318-.712-.71 0-.393.32-.713.712-.713.393 0 .712.32.712.712 0 .392-.32.712-.712.712zm5.695-7.254c-.06.795-.238 1.546-.528 2.232-.226.534-.51 1-.845 1.386l-.323-.022c0-.082-.034-.16-.095-.215-.054-.05-.124-.075-.196-.075l-.027.002-.043.005c-.215.026-.394-.026-.507-.147-.102-.11-.15-.276-.135-.47l.453-6.032c.03-.41.23-.41.338-.41l.235.035.185.046c.13.033.268-.028.33-.145.13-.026.25-.034.305-.03.29.445.51.967.662 1.554.183.71.248 1.5.188 2.285z" stroke="#fff" fill="#fff"/></svg>