<?xml version="1.0" encoding="utf-8"?>
<!-- Generator: Adobe Illustrator 16.0.0, SVG Export Plug-In . SVG Version: 6.00 Build 0)  -->
<!DOCTYPE svg PUBLIC "-//W3C//DTD SVG 1.1//EN" "http://www.w3.org/Graphics/SVG/1.1/DTD/svg11.dtd">
<svg version="1.1" id="Layer_1" xmlns:sketch="http://www.bohemiancoding.com/sketch/ns"
	 xmlns="http://www.w3.org/2000/svg" xmlns:xlink="http://www.w3.org/1999/xlink" x="0px" y="0px" viewBox="0 0 25.71 25.71" enable-background="new 0 0 25.71 25.71" xml:space="preserve">
<g transform="translate(0 0)" sketch:type="MSShapeGroup">
	<path fill="#4A4A4A" d="M22.68,19.13H7.27c-0.65,0-1.19-0.53-1.19-1.19c0-0.32,0.12-0.61,0.35-0.84c0.22-0.22,0.52-0.35,0.84-0.35
		h15.25c0.23,0,0.43-0.16,0.49-0.38L25.56,6.2c0.04-0.15,0-0.31-0.09-0.43c-0.09-0.12-0.24-0.19-0.4-0.19H5.13L4.38,2.57
		C4.32,2.34,4.12,2.19,3.88,2.19H0.5C0.22,2.19,0,2.42,0,2.69c0,0.28,0.22,0.5,0.5,0.5h2.99L4.24,6.2l2.41,9.66
		c-0.35,0.1-0.68,0.26-0.94,0.52c-0.41,0.41-0.64,0.97-0.64,1.55c0,0.7,0.34,1.29,0.85,1.7l-0.21,0.14
		c-0.41,0.41-0.64,0.96-0.64,1.55c0,1.21,0.99,2.2,2.2,2.2h0.01c0.59,0,1.14-0.23,1.56-0.65c0.41-0.41,0.64-0.96,0.64-1.55
		c0-0.45-0.17-0.84-0.4-1.19h11.81c-0.24,0.36-0.4,0.75-0.4,1.19c0,1.21,0.98,2.2,2.2,2.2h0.01c0.59,0,1.14-0.23,1.55-0.65
		c0.41-0.41,0.64-0.96,0.64-1.55C24.88,20.12,23.89,19.14,22.68,19.13L22.68,19.13z M24.42,6.59l-2.29,9.16H7.67L5.38,6.59H24.42z
		 M8.46,21.34c0,0.32-0.12,0.61-0.35,0.84c-0.22,0.22-0.52,0.35-0.84,0.35H7.27c-0.65,0-1.18-0.53-1.18-1.19
		c0-0.32,0.12-0.62,0.35-0.84c0.22-0.22,0.52-0.35,0.84-0.35C7.93,20.14,8.46,20.68,8.46,21.34z M23.52,22.17
		c-0.22,0.22-0.52,0.35-0.84,0.35h-0.01c-0.65,0-1.19-0.53-1.19-1.19c0-0.32,0.12-0.62,0.35-0.84c0.22-0.22,0.53-0.35,0.85-0.35
		c0.65,0,1.18,0.54,1.18,1.19C23.87,21.65,23.75,21.95,23.52,22.17z"/>
</g>
</svg>
