<svg xmlns="http://www.w3.org/2000/svg" viewBox="0 0 25.71 25.71"><path fill="#4A4A4A" d="M22.68 19.13H7.27c-.65 0-1.19-.53-1.19-1.19 0-.32.12-.61.35-.84.22-.22.52-.35.84-.35h15.25c.23 0 .43-.16.49-.38L25.56 6.2c.04-.15 0-.31-.09-.43s-.24-.19-.4-.19H5.13l-.75-3.01c-.06-.23-.26-.38-.5-.38H.5c-.28 0-.5.23-.5.5 0 .28.22.5.5.5h2.99l.75 3.01 2.41 9.66c-.35.1-.68.26-.94.52-.41.41-.64.97-.64 1.55 0 .7.34 1.29.85 1.7l-.21.14c-.41.41-.64.96-.64 1.55 0 1.21.99 2.2 2.2 2.2h.01c.59 0 1.14-.23 1.56-.65.41-.41.64-.96.64-1.55 0-.45-.17-.84-.4-1.19h11.81c-.24.36-.4.75-.4 1.19 0 1.21.98 2.2 2.2 2.2h.01c.59 0 1.14-.23 1.55-.65.41-.41.64-.96.64-1.55-.01-1.2-1-2.18-2.21-2.19zm1.74-12.54l-2.29 9.16H7.67L5.38 6.59h19.04zM8.46 21.34c0 .32-.12.61-.35.84-.22.22-.52.35-.84.35-.65 0-1.18-.53-1.18-1.19 0-.32.12-.62.35-.84.22-.22.52-.35.84-.35.65-.01 1.18.53 1.18 1.19zm15.06.83c-.22.22-.52.35-.84.35h-.01c-.65 0-1.19-.53-1.19-1.19 0-.32.12-.62.35-.84.22-.22.53-.35.85-.35.65 0 1.18.54 1.18 1.19.01.32-.11.62-.34.84z"/></svg>