<?xml version="1.0" encoding="UTF-8" standalone="no"?>
<svg width="21px" height="22px" viewBox="0 0 21 22" version="1.1" xmlns="http://www.w3.org/2000/svg" xmlns:xlink="http://www.w3.org/1999/xlink" xmlns:sketch="http://www.bohemiancoding.com/sketch/ns">
    <!-- Generator: Sketch 3.3.3 (12072) - http://www.bohemiancoding.com/sketch -->
    <title>Fill 19</title>
    <desc>Created with Sketch.</desc>
    <defs></defs>
    <g id="Page-1" stroke="none" stroke-width="1" fill="none" fill-rule="evenodd" sketch:type="MSPage">
        <g id="Desktop-HD" sketch:type="MSArtboardGroup" transform="translate(-1191.000000, -92.000000)" fill="#4A4A4A">
            <g id="Header-Menu-1" sketch:type="MSLayerGroup" transform="translate(0.000000, 48.000000)">
                <g id="Buscador" transform="translate(890.000000, 34.000000)" sketch:type="MSShapeGroup">
                    <path d="M309.839445,26.7898075 C305.712535,26.7898075 302.367047,23.5027132 302.367047,19.4414131 C302.367047,15.3801129 305.712535,12.0864576 309.839445,12.0864576 C313.966356,12.0864576 317.3125,15.3801129 317.3125,19.4414131 C317.3125,23.5027132 313.966356,26.7898075 309.839445,26.7898075 L309.839445,26.7898075 Z M321.798957,30.595226 L316.380173,25.261079 C317.798675,23.7192284 318.670641,21.6852978 318.670641,19.4414131 C318.670641,14.6387124 314.716942,10.748 309.839445,10.748 C304.961949,10.748 301.00825,14.6387124 301.00825,19.4414131 C301.00825,24.2375526 304.961949,28.128265 309.839445,28.128265 C311.94686,28.128265 313.87975,27.3999867 315.397981,26.1861894 L320.838417,31.5400196 C321.10414,31.8024622 321.53389,31.8024622 321.798957,31.5400196 C322.064681,31.284138 322.064681,30.8576687 321.798957,30.595226 L321.798957,30.595226 Z" id="Fill-19"></path>
                </g>
            </g>
        </g>
    </g>
</svg>