<svg width="57" height="57" viewBox="0 0 57 57" xmlns="http://www.w3.org/2000/svg" xmlns:sketch="http://www.bohemiancoding.com/sketch/ns"><title>Path 8 Copy + Fill 43</title><desc>Created with Sketch.</desc><g sketch:type="MSShapeGroup" fill="none"><path d="M.204 0h56.261l-56.465 56.465.204-56.465z" fill="#DB383B"/><path d="M27.799 5.311c-.776-.776-1.809-1.205-2.908-1.205-1.098 0-2.13.429-2.907 1.205-.181.181-.181.474 0 .655.181.181.474.181.655 0 1.203-1.203 3.302-1.203 4.505 0 .601.601.932 1.4.932 2.25 0 .85-.332 1.65-.932 2.253-.181.181-.181.474 0 .655.09.09.208.136.327.136.118 0 .237-.045.327-.136.776-.776 1.204-1.809 1.204-2.908 0-1.098-.427-2.129-1.204-2.905zm-11.486 11.692c-.511 0-.927-.416-.927-.925 0-.511.416-.927.927-.927.509 0 .925.416.925.927 0 .509-.416.925-.925.925zm3.866-5.306l-2.84 2.84c-.169-.113-.361-.194-.563-.246v-6.087c0-.257-.208-.463-.463-.463-.257 0-.463.206-.463.463v6.087c-.797.207-1.39.925-1.39 1.788 0 1.019.832 1.852 1.853 1.852s1.852-.832 1.852-1.852c0-.306-.081-.59-.212-.844l2.882-2.882c.181-.181.181-.474 0-.655-.181-.181-.474-.181-.655 0zm-3.866 13.643c-5.108 0-9.264-4.156-9.264-9.262 0-5.109 4.156-9.264 9.264-9.264s9.262 4.155 9.262 9.264c0 5.106-4.155 9.262-9.262 9.262zm0-19.452c-5.618 0-10.19 4.57-10.19 10.19 0 3.669 1.95 6.889 4.867 8.683l-1.112 2.223c-.115.23-.021.507.207.622l.207.049c.17 0 .334-.094.415-.257l1.094-2.188c1.361.675 2.892 1.056 4.511 1.056 1.772 0 3.439-.455 4.892-1.255l.019.071 1.158 2.316c.082.163.245.257.415.257l.206-.049c.23-.116.322-.393.208-.622l-1.158-2.316-.092-.117c2.734-1.829 4.539-4.944 4.539-8.474 0-5.62-4.571-10.19-10.188-10.19zm-11.484 2.328c0-.85.332-1.65.933-2.25 1.243-1.243 3.264-1.243 4.505 0 .181.181.474.181.655 0 .181-.181.181-.474 0-.655-1.603-1.603-4.211-1.603-5.814 0-.776.776-1.204 1.807-1.204 2.905 0 1.098.428 2.131 1.204 2.908.09.09.21.136.327.136.119 0 .237-.045.327-.136.181-.181.181-.474 0-.655-.601-.603-.933-1.402-.933-2.253z" fill="#fff"/></g></svg>