<svg width="57" height="57" viewBox="0 0 57 57" xmlns="http://www.w3.org/2000/svg" xmlns:sketch="http://www.bohemiancoding.com/sketch/ns"><title>Path 8 + Repeat 2</title><desc>Created with Sketch.</desc><g sketch:type="MSShapeGroup" fill="none"><path d="M.204 0h56.261l-56.465 56.465.204-56.465z" fill="#00AEDC"/><path d="M8.952 6.273c0 .313.255.568.568.568 3.888 0 7.052 3.161 7.052 7.051v13.879l-2.841-2.843c-.22-.22-.581-.22-.801 0-.111.111-.167.255-.167.402 0 .144.056.29.167.402l3.807 3.809c.222.222.581.222.803 0l3.809-3.809c.222-.225.218-.583 0-.803-.222-.22-.581-.22-.803 0l-2.839 2.843v-13.879c0-4.513-3.673-8.185-8.188-8.185-.311-.001-.567.255-.567.566z" fill="#fff"/></g></svg>