<svg width="44" height="39" viewBox="0 0 44 39" xmlns="http://www.w3.org/2000/svg"><title>Fill 157</title><path d="M22.91 0C10.276 0 0 7.567 0 16.867c0 5.204 3.07 9.993 8.422 13.137.096.072.335.55.244 1.45-.088.87-.733 3.885-5.338 6.066-.28.132-.44.43-.395.733.044.305.28.546.586.594.03.005.792.123 2.005.123 3.142 0 8.988-.778 13.262-5.92.34.057.68.123 1.024.192.997.194 2.026.396 3.1.396 12.158 0 20.65-6.897 20.65-16.77C43.56 6.935 35.068 0 22.91 0zm0 32.235c-.937 0-1.9-.19-2.83-.37-.5-.1-.994-.196-1.484-.265-.25-.04-.495.062-.65.258-3.695 4.672-8.817 5.606-11.87 5.7 3.532-2.447 3.966-5.33 4.008-6.262.054-1.186-.3-2.12-.946-2.5-4.915-2.887-7.735-7.236-7.735-11.93 0-8.525 9.648-15.463 21.506-15.463 11.332 0 19.247 6.358 19.247 15.464 0 9.048-7.915 15.368-19.248 15.368z" fill="#E67E22" fill-rule="evenodd"/></svg>