<svg width="42" height="53" viewBox="0 0 42 53" xmlns="http://www.w3.org/2000/svg"><title>Fill 199</title><path d="M14.472 14.154c.138.112.304.167.47.167.217 0 .435-.095.584-.28l6.692-8.317c.26-.323.21-.795-.114-1.055-.32-.258-.793-.208-1.053.114L14.36 13.1c-.26.323-.21.795.114 1.054zm2.87 2.36c.126.276.398.44.684.44.103 0 .21-.02.308-.067l9.6-4.346c.377-.17.545-.614.375-.99-.172-.38-.616-.546-.995-.375l-9.6 4.346c-.377.172-.545.616-.373.993zm23.8 26.984l-7.782-7.22-.026-.022c-.9-.843-2.38-.8-3.232.095l-3.39 3.56c-.755.8-1.88.296-5.453-2.44-2.533-1.942-5.014-4.278-6.988-6.573-1.942-2.267-2.41-3.456-1.73-4.19l.92-.79 2.864-2.783c.046-.045.086-.097.12-.15.91-1.26-.503-2.537-1.095-3.037l-.035-.04s-7.472-7.27-7.643-7.438l-.016-.017c-.905-.85-2.187-.81-3.054.11l-2.582 2.81-.692.805c-.068.09-6.564 9.164 9.807 24.94 9.318 8.988 16.308 10.968 20.656 10.968.165 0 .326-.003.482-.01 2.84-.095 4.69-1.063 5.385-1.833l3.486-3.547c.44-.466.678-1.1.65-1.74-.023-.586-.258-1.106-.652-1.458zM5.7 13.583c.15-.16.312-.24.478-.24.152 0 .305.068.45.203l.007-.008c.373.38 1.794 1.765 7.56 7.377.033.043.07.08.113.116.92.77.927 1.05.908 1.09l-2.286 2.223c-1.54-1.493-7.502-7.28-9.036-8.77l1.805-1.99zm30.87 35.625c-.394.436-1.81 1.283-4.35 1.37-3.283.118-10.265-1.105-20.046-10.54C-.624 27.703.87 19.283 2.496 17.12l.39-.432c.752.728 2.886 2.8 8.936 8.67l-.314.27c-1.95 2.075.376 4.79 1.626 6.247 2.04 2.372 4.6 4.782 7.213 6.788 3.114 2.385 5.574 4.27 7.452 2.283l.172-.18 8.688 8.36-.087.085zm3.49-3.55l-2.344 2.4c-5.82-5.6-7.942-7.642-8.713-8.382l2.183-2.29c.283-.3.796-.322 1.104-.05l.025.023 7.813 7.248c.097.087.158.236.165.41.01.238-.078.474-.234.64zm-29.118-33.92c.068.02.136.03.205.03.326 0 .626-.215.72-.544L14.795.954c.112-.397-.118-.812-.516-.925-.4-.114-.813.117-.928.514l-2.926 10.27c-.112.397.12.812.518.925z" fill="#4CAF50" fill-rule="evenodd"/></svg>