<?xml version="1.0" encoding="UTF-8" standalone="no"?>
<svg width="43px" height="38px" viewBox="0 0 43 38" version="1.1" xmlns="http://www.w3.org/2000/svg" xmlns:xlink="http://www.w3.org/1999/xlink" xmlns:sketch="http://www.bohemiancoding.com/sketch/ns">
    <!-- Generator: Sketch 3.4.2 (15857) - http://www.bohemiancoding.com/sketch -->
    <title>Fill 84</title>
    <desc>Created with Sketch.</desc>
    <defs></defs>
    <g id="Page-1" stroke="none" stroke-width="1" fill="none" fill-rule="evenodd" sketch:type="MSPage">
        <g id="Desktop-HD" sketch:type="MSArtboardGroup" transform="translate(-539.000000, -4369.000000)" fill="#DB383B">
            <g id="8---Features" sketch:type="MSLayerGroup" transform="translate(103.000000, 4361.000000)">
                <path d="M467.504346,8.164 C463.324346,8.164 459.497346,10.68 457.226346,14.826 C454.910346,10.522 451.167346,8 446.981346,8 C441.572346,8 436.062346,12.608 436.000346,21.416 C435.949346,28.542 441.546346,31.916 446.044346,34.627 C446.839346,35.105 447.613346,35.571 448.329346,36.041 C453.019346,39.112 456.115346,43.213 456.531346,44.644 C456.624346,44.966 456.917346,45.185 457.251346,45.185 L457.262346,45.185 C457.599346,45.18 457.892346,44.95 457.978346,44.623 C458.342346,43.214 461.790346,39.033 466.159346,35.942 C467.017346,35.334 467.956346,34.749 468.951346,34.13 C473.434346,31.341 478.513346,28.18 478.464346,21.335 C478.402346,12.285 472.740346,8.164 467.504346,8.164 L467.504346,8.164 Z M468.159346,32.856 C467.144346,33.488 466.185346,34.085 465.292346,34.718 C461.997346,37.049 458.710346,40.373 457.247346,42.718 C455.915346,40.535 453.007346,37.311 449.152346,34.786 C448.419346,34.306 447.629346,33.831 446.820346,33.343 C442.430346,30.697 437.454346,27.698 437.501346,21.427 C437.558346,13.232 442.454346,9.5 446.981346,9.5 C450.993346,9.5 454.564346,12.246 456.534346,16.845 C456.652346,17.12 456.923346,17.299 457.224346,17.299 C457.526346,17.299 457.796346,17.119 457.913346,16.843 C459.798346,12.414 463.474346,9.664 467.504346,9.664 C472.022346,9.664 476.909346,13.319 476.963346,21.346 C477.007346,27.35 472.509346,30.149 468.159346,32.856 L468.159346,32.856 Z" id="Fill-84" sketch:type="MSShapeGroup"></path>
            </g>
        </g>
    </g>
</svg>