<?xml version="1.0" encoding="UTF-8" standalone="no"?>
<svg width="44px" height="39px" viewBox="0 0 44 39" version="1.1" xmlns="http://www.w3.org/2000/svg" xmlns:xlink="http://www.w3.org/1999/xlink" xmlns:sketch="http://www.bohemiancoding.com/sketch/ns">
    <!-- Generator: Sketch 3.4.2 (15857) - http://www.bohemiancoding.com/sketch -->
    <title>Fill 157</title>
    <desc>Created with Sketch.</desc>
    <defs></defs>
    <g id="Page-1" stroke="none" stroke-width="1" fill="none" fill-rule="evenodd" sketch:type="MSPage">
        <g id="Desktop-HD" sketch:type="MSArtboardGroup" transform="translate(-1179.000000, -4366.000000)" fill="#E67E22">
            <g id="8---Features" sketch:type="MSLayerGroup" transform="translate(103.000000, 4361.000000)">
                <path d="M1098.90923,5 C1086.2772,5 1076,12.5668662 1076,21.8673382 C1076,27.070962 1079.07147,31.8601297 1084.42197,35.003635 C1084.51834,35.0756736 1084.75691,35.5537484 1084.66616,36.4528283 C1084.57821,37.3238412 1083.93267,40.3391738 1079.32781,42.5199806 C1079.04901,42.6518955 1078.88903,42.9494058 1078.933,43.2534651 C1078.97697,43.55846 1079.21367,43.7989007 1079.51867,43.8466146 C1079.54954,43.852228 1080.31203,43.9701095 1081.52452,43.9701095 C1084.66709,43.9701095 1090.51252,43.1917177 1094.78712,38.0498412 C1095.1258,38.1069108 1095.46728,38.1733361 1095.81063,38.2416325 C1096.80701,38.4362304 1097.83613,38.6383129 1098.90923,38.6383129 C1111.06786,38.6383129 1119.56,31.7413127 1119.56,21.8673382 C1119.56,11.936294 1111.06786,5 1098.90923,5 L1098.90923,5 Z M1098.90923,37.2349624 C1097.97273,37.2349624 1097.01096,37.0459778 1096.08101,36.8635422 C1095.58048,36.7662433 1095.08557,36.6689443 1094.59627,36.5997123 C1094.34647,36.5613541 1094.10135,36.6623953 1093.94605,36.8579288 C1090.25149,41.5301506 1085.12926,42.4638465 1082.07651,42.5583388 C1085.60827,40.1108954 1086.04238,37.229349 1086.08448,36.295653 C1086.1378,35.1102896 1085.78416,34.1765937 1085.13768,33.7967535 C1080.22315,30.908658 1077.40335,26.5601424 1077.40335,21.8673382 C1077.40335,13.3405802 1087.05092,6.40335056 1098.90923,6.40335056 C1110.24175,6.40335056 1118.15665,12.7614642 1118.15665,21.8673382 C1118.15665,30.915207 1110.24175,37.2349624 1098.90923,37.2349624 L1098.90923,37.2349624 Z" id="Fill-157" sketch:type="MSShapeGroup"></path>
            </g>
        </g>
    </g>
</svg>