<svg width="43" height="38" viewBox="0 0 43 38" xmlns="http://www.w3.org/2000/svg"><title>Fill 84</title><path d="M31.504.164c-4.18 0-8.007 2.516-10.278 6.662C18.91 2.522 15.166 0 10.98 0 5.573 0 .063 4.608 0 13.416c-.05 7.126 5.546 10.5 10.044 13.21.795.48 1.57.945 2.285 1.415 4.69 3.072 7.785 7.173 8.2 8.604.094.322.387.54.72.54h.012c.337-.004.63-.234.716-.56.364-1.41 3.812-5.59 8.18-8.682.86-.608 1.798-1.193 2.793-1.812 4.484-2.79 9.563-5.95 9.514-12.795-.062-9.05-5.724-13.17-10.96-13.17zm.655 24.692c-1.016.632-1.975 1.23-2.868 1.862-3.295 2.33-6.582 5.655-8.045 8-1.332-2.183-4.24-5.407-8.095-7.932-.733-.48-1.523-.955-2.332-1.443-4.39-2.646-9.366-5.645-9.32-11.916C1.56 5.232 6.455 1.5 10.98 1.5c4.013 0 7.584 2.746 9.554 7.345.118.275.39.454.69.454.302 0 .572-.18.69-.457 1.884-4.43 5.56-7.18 9.59-7.18 4.518 0 9.405 3.656 9.46 11.683.043 6.004-4.455 8.803-8.805 11.51z" fill="#DB383B" fill-rule="evenodd"/></svg>