<svg width="43" height="33" viewBox="0 0 43 33" xmlns="http://www.w3.org/2000/svg"><title>Fill 71</title><path d="M42.447.665c-.006-.053-.014-.103-.032-.152-.015-.046-.036-.086-.06-.127-.023-.042-.047-.08-.078-.117-.033-.042-.074-.074-.117-.107-.022-.018-.038-.042-.063-.057-.014-.008-.03-.008-.045-.015-.045-.024-.094-.037-.144-.05-.05-.014-.095-.026-.145-.03-.016 0-.03-.01-.05-.01H.75C.732 0 .717.01.7.01.65.015.606.027.56.04.51.053.46.066.41.09.4.1.383.1.37.107.342.12.328.146.304.163.26.196.22.228.188.27.156.305.132.343.108.384.086.427.065.467.05.513c-.015.05-.023.1-.03.152C.016.695 0 .72 0 .75v30.57c0 .414.337.75.75.75h40.964c.414 0 .75-.336.75-.75V.75c0-.03-.013-.056-.017-.085zm-2.113.835c-2.224 3.29-9.346 12.84-19.102 16.21C11.476 14.34 4.355 4.79 2.13 1.5h38.204zM1.5 3.248C3.576 6.2 7.856 11.61 13.75 15.58 7.75 20.276 3.403 26.14 1.5 28.96V3.248zM2.24 30.57c1.498-2.298 6.23-9.082 12.85-14.133 1.835 1.118 3.808 2.082 5.906 2.783H21c.074.025.152.038.232.038.078 0 .156-.013.23-.037h.006c2.1-.7 4.068-1.664 5.9-2.78 6.622 5.05 11.353 11.833 12.852 14.13H2.238zm38.725-1.6c-1.895-2.814-6.245-8.685-12.255-13.386 5.9-3.97 10.182-9.384 12.255-12.336V28.97z" fill="#E67E22" fill-rule="evenodd"/></svg>