<svg width="37" height="46" viewBox="0 0 37 46" xmlns="http://www.w3.org/2000/svg"><title>Fill 96</title><path d="M31.198 17.07l-26.174.006C2.16 17.44 0 19.88 0 22.754v16.978c0 3.17 2.58 5.75 5.75 5.75h24.823c3.167 0 5.745-2.58 5.745-5.75V22.754c0-2.874-2.16-5.316-5.12-5.684zm3.62 22.662c0 2.344-1.906 4.25-4.245 4.25H5.75c-2.344 0-4.25-1.906-4.25-4.25V22.754c0-2.12 1.596-3.92 3.62-4.184l25.984-.006c2.117.268 3.714 2.07 3.714 4.19v16.978zM5.102 15.254c.412.023.758-.318.768-.734C6.008 8.374 11.293 1.5 18.16 1.5c6.87 0 12.154 6.874 12.288 13.02.007.41.34.734.75.734h.015c.414-.01.742-.353.735-.767C31.798 7.635 26.1 0 18.16 0 10.227 0 4.524 7.635 4.37 14.487c-.01.414.318.757.732.767zm13.058 9.44c-2.206 0-4 1.798-4 4.007 0 1.48.796 2.803 2.067 3.502v4.052c0 1.065.867 1.932 1.933 1.932 1.067 0 1.936-.867 1.936-1.932V32.2c1.272-.697 2.068-2.02 2.068-3.5 0-2.208-1.795-4.005-4.004-4.005zm.913 6.332c-.288.113-.477.39-.477.7v4.528c0 .238-.195.432-.436.432-.244 0-.433-.19-.433-.432v-4.527c0-.31-.19-.585-.476-.7-.966-.38-1.59-1.293-1.59-2.326 0-1.38 1.12-2.505 2.5-2.505 1.382 0 2.504 1.124 2.504 2.506 0 1.034-.625 1.947-1.59 2.326z" fill="#00AEDC" fill-rule="evenodd"/></svg>