<svg width="45" height="32" viewBox="0 0 45 32" xmlns="http://www.w3.org/2000/svg"><title>Fill 110</title><path d="M21.7 10.017V.843c0-.304-.184-.577-.465-.693-.06-.025-.387-.15-.9-.15-.507 0-1.31.123-2.27.72L1.614 11.556C.543 12.262 0 13.198 0 14.337c0 1.214.602 2.337 1.635 3.018l16.39 10.083c.868.655 1.838.793 2.498.793.336 0 .547-.035.547-.035.36-.063.63-.376.63-.74v-8.94c18.513.317 21.218 12.324 21.325 12.842.073.35.38.598.733.598.025 0 .052 0 .077-.004.384-.037.675-.36.675-.744 0-18.854-16.57-21.04-22.81-21.19zm18.732 13.95c-3.013-3.174-8.84-6.957-19.483-6.957-.415 0-.75.336-.75.75v8.953c-.37-.04-.864-.165-1.33-.513L2.44 16.09c-.59-.39-.94-1.044-.94-1.753 0-.63.29-1.1.94-1.53L18.874 1.985c.556-.347 1.01-.456 1.324-.48v9.253c0 .414.335.75.75.75 15.82 0 20.427 8.697 21.65 15.24-.555-.88-1.265-1.83-2.168-2.782z" fill="#00AEDC" fill-rule="evenodd"/></svg>