<svg width="39" height="33" viewBox="0 0 39 33" xmlns="http://www.w3.org/2000/svg"><title>Fill 45</title><path d="M38.01 9.072c-.007-.05 0-.103-.017-.152L34.72.478C34.605.19 34.33 0 34.02 0H4.024c-.31 0-.587.19-.7.478L.05 8.92c-.018.05-.01.1-.018.152-.012.05-.032.1-.032.154v22.85c0 .414.336.75.75.75h36.543c.414 0 .75-.336.75-.75V9.226c0-.054-.02-.103-.032-.154zM21.29 1.5l1.886 7.686v8.672l-3.816-1.91c-.21-.105-.46-.105-.673 0l-3.818 1.91V9.14L16.75 1.5h4.537zm15.253 29.826H1.5V9.976H11.84c.414 0 .75-.336.75-.75 0-.005-.004-.01-.004-.017 0-.007.004-.013.004-.02 0-.413-.336-.75-.75-.75H1.846l2.69-6.94h10.67L13.39 8.87c-.015.06-.02.12-.02.18v10.022c0 .26.134.5.355.638.22.137.495.148.73.033l4.57-2.285 4.565 2.285c.106.053.22.08.336.08.137 0 .273-.038.394-.113.22-.137.356-.378.356-.638V9.095c0-.06-.007-.12-.02-.178L22.833 1.5h10.672l2.692 6.94h-9.995c-.414 0-.75.337-.75.75 0 .007.003.013.004.02 0 .005-.003.01-.003.016 0 .414.335.75.75.75h10.34v21.35z" fill="#4CAF50" fill-rule="evenodd"/></svg>