<?xml version="1.0" encoding="UTF-8" standalone="no"?>
<svg width="37px" height="46px" viewBox="0 0 37 46" version="1.1" xmlns="http://www.w3.org/2000/svg" xmlns:xlink="http://www.w3.org/1999/xlink" xmlns:sketch="http://www.bohemiancoding.com/sketch/ns">
    <!-- Generator: Sketch 3.4.2 (15857) - http://www.bohemiancoding.com/sketch -->
    <title>Fill 96</title>
    <desc>Created with Sketch.</desc>
    <defs></defs>
    <g id="Page-1" stroke="none" stroke-width="1" fill="none" fill-rule="evenodd" sketch:type="MSPage">
        <g id="Desktop-HD" sketch:type="MSArtboardGroup" transform="translate(-222.000000, -4361.000000)" fill="#00AEDC">
            <g id="8---Features" sketch:type="MSLayerGroup" transform="translate(103.000000, 4361.000000)">
                <path d="M150.198,17.07 L124.024,17.076 C121.16,17.439 119,19.88 119,22.754 L119,39.732 C119,42.903 121.579,45.482 124.75,45.482 L149.573,45.482 C152.74,45.482 155.318,42.903 155.318,39.732 L155.318,22.754 C155.318,19.88 153.157,17.438 150.198,17.07 L150.198,17.07 Z M153.818,39.732 C153.818,42.076 151.912,43.982 149.573,43.982 L124.75,43.982 C122.406,43.982 120.5,42.076 120.5,39.732 L120.5,22.754 C120.5,20.634 122.096,18.833 124.119,18.57 L150.104,18.564 C152.221,18.832 153.818,20.634 153.818,22.754 L153.818,39.732 L153.818,39.732 Z M124.102,15.254 C124.514,15.277 124.86,14.936 124.87,14.52 C125.008,8.374 130.293,1.5 137.16,1.5 C144.031,1.5 149.314,8.374 149.448,14.52 C149.455,14.929 149.789,15.254 150.198,15.254 L150.213,15.254 C150.627,15.245 150.955,14.901 150.948,14.487 C150.797,7.635 145.1,0 137.16,0 C129.227,0 123.524,7.635 123.37,14.487 C123.36,14.901 123.688,15.244 124.102,15.254 L124.102,15.254 Z M137.16,24.695 C134.954,24.695 133.159,26.492 133.159,28.701 C133.159,30.18 133.956,31.503 135.227,32.202 L135.227,36.254 C135.227,37.319 136.094,38.186 137.16,38.186 C138.227,38.186 139.096,37.319 139.096,36.254 L139.096,32.2 C140.368,31.503 141.164,30.18 141.164,28.701 C141.164,26.492 139.369,24.695 137.16,24.695 L137.16,24.695 Z M138.073,31.026 C137.785,31.139 137.596,31.416 137.596,31.725 L137.596,36.254 C137.596,36.492 137.401,36.686 137.16,36.686 C136.916,36.686 136.727,36.496 136.727,36.254 L136.727,31.727 C136.727,31.418 136.538,31.142 136.251,31.028 C135.284,30.648 134.659,29.734 134.659,28.701 C134.659,27.319 135.781,26.195 137.16,26.195 C138.542,26.195 139.664,27.319 139.664,28.701 C139.664,29.734 139.039,30.647 138.073,31.026 L138.073,31.026 Z" id="Fill-96" sketch:type="MSShapeGroup"></path>
            </g>
        </g>
    </g>
</svg>