<?xml version="1.0" encoding="UTF-8" standalone="no"?>
<svg width="43px" height="33px" viewBox="0 0 43 33" version="1.1" xmlns="http://www.w3.org/2000/svg" xmlns:xlink="http://www.w3.org/1999/xlink" xmlns:sketch="http://www.bohemiancoding.com/sketch/ns">
    <!-- Generator: Sketch 3.4.2 (15857) - http://www.bohemiancoding.com/sketch -->
    <title>Fill 71</title>
    <desc>Created with Sketch.</desc>
    <defs></defs>
    <g id="Page-1" stroke="none" stroke-width="1" fill="none" fill-rule="evenodd" sketch:type="MSPage">
        <g id="Desktop-HD" sketch:type="MSArtboardGroup" transform="translate(-219.000000, -4772.000000)" fill="#E67E22">
            <g id="10---Contacto" sketch:type="MSLayerGroup" transform="translate(103.000000, 4758.000000)">
                <path d="M158.447,14.665 C158.441,14.612 158.433,14.562 158.415,14.513 C158.4,14.467 158.379,14.427 158.355,14.386 C158.332,14.344 158.308,14.306 158.277,14.269 C158.244,14.228 158.203,14.196 158.16,14.163 C158.138,14.145 158.122,14.121 158.097,14.106 C158.083,14.098 158.067,14.098 158.052,14.091 C158.007,14.066 157.958,14.053 157.908,14.039 C157.859,14.026 157.813,14.014 157.763,14.01 C157.747,14.009 157.732,14 157.714,14 L116.75,14 C116.732,14 116.717,14.009 116.699,14.011 C116.652,14.014 116.607,14.026 116.56,14.038 C116.509,14.053 116.459,14.066 116.411,14.091 C116.398,14.098 116.382,14.098 116.368,14.106 C116.342,14.121 116.328,14.145 116.304,14.163 C116.261,14.196 116.221,14.228 116.188,14.269 C116.156,14.306 116.132,14.344 116.109,14.385 C116.085,14.427 116.064,14.467 116.048,14.513 C116.033,14.562 116.025,14.612 116.019,14.665 C116.015,14.694 116,14.72 116,14.75 L116,45.32 C116,45.734 116.337,46.07 116.75,46.07 L157.714,46.07 C158.128,46.07 158.464,45.734 158.464,45.32 L158.464,14.75 C158.464,14.72 158.451,14.694 158.447,14.665 L158.447,14.665 Z M156.334,15.5 C154.11,18.791 146.988,28.34 137.232,31.71 C127.476,28.34 120.355,18.791 118.13,15.5 L156.334,15.5 L156.334,15.5 Z M117.501,17.248 C119.575,20.2 123.855,25.611 129.751,29.581 C123.749,34.275 119.402,40.139 117.501,42.958 L117.501,17.248 L117.501,17.248 Z M118.238,44.57 C119.736,42.272 124.468,35.488 131.089,30.437 C132.923,31.555 134.896,32.519 136.994,33.22 C136.995,33.221 136.997,33.22 137,33.221 C137.074,33.245 137.152,33.258 137.232,33.258 C137.31,33.258 137.388,33.245 137.463,33.221 C137.464,33.22 137.466,33.221 137.468,33.22 C139.567,32.519 141.536,31.556 143.369,30.44 C149.99,35.491 154.721,42.273 156.22,44.57 L118.238,44.57 L118.238,44.57 Z M156.963,42.97 C155.068,40.156 150.718,34.285 144.708,29.584 C150.607,25.614 154.89,20.2 156.963,17.248 L156.963,42.97 L156.963,42.97 Z" id="Fill-71" sketch:type="MSShapeGroup"></path>
            </g>
        </g>
    </g>
</svg>