<svg width="44" height="43" viewBox="0 0 44 43" xmlns="http://www.w3.org/2000/svg"><title>Box open 2</title><path d="M37.502 15.504l5.486-5.534c.176-.173.258-.42.228-.657-.035-.25-.177-.462-.385-.585L28.038.104c-.307-.178-.69-.123-.94.13L21.61 5.768 16.124.235c-.252-.254-.637-.31-.943-.13L.39 8.727c-.215.123-.356.336-.383.585-.03.238.046.484.217.657l5.49 5.534-5.49 5.54c-.17.172-.25.418-.217.656.028.24.168.457.382.58l5.642 3.293v7.17c0 .283.15.54.39.682l14.797 8.624c.118.073.254.103.39.103.132 0 .266-.03.388-.104l14.792-8.625c.24-.143.39-.4.39-.683v-7.17l5.65-3.292c.207-.123.348-.34.383-.58.03-.246-.052-.484-.228-.656l-5.483-5.54zm-2.666 0l-13.226 7.71-13.23-7.71 9.92-5.78 3.31-1.926 11.964 6.968 1.262.738zm-7.06-13.73l13.39 7.81-4.894 4.936-.802-.468-12.592-7.336 4.898-4.943zm-12.333 0l4.898 4.942L6.945 14.52 2.046 9.585l13.397-7.812zm-8.5 14.714l13.392 7.81-4.895 4.934-8.238-4.8H7.2L2.046 21.43l4.898-4.942zm.65 9.995l7.585 4.418c.122.075.258.107.39.107.017 0 .028-.02.046-.02.18-.005.366-.068.506-.206l4.71-4.752v13.977L7.59 32.285v-5.802zm28.025 5.805L22.39 40V26.03l4.703 4.752c.14.14.318.195.504.207.016 0 .032.02.046.02.136 0 .267-.033.39-.108l7.585-4.418v5.804zm-7.845-3.054L22.878 24.3l13.394-7.81 4.895 4.94-13.394 7.804z" fill="#DB383B" fill-rule="evenodd"/></svg>