<?xml version="1.0" encoding="UTF-8" standalone="no"?>
<svg width="39px" height="33px" viewBox="0 0 39 33" version="1.1" xmlns="http://www.w3.org/2000/svg" xmlns:xlink="http://www.w3.org/1999/xlink" xmlns:sketch="http://www.bohemiancoding.com/sketch/ns">
    <!-- Generator: Sketch 3.4.2 (15857) - http://www.bohemiancoding.com/sketch -->
    <title>Fill 45</title>
    <desc>Created with Sketch.</desc>
    <defs></defs>
    <g id="Page-1" stroke="none" stroke-width="1" fill="none" fill-rule="evenodd" sketch:type="MSPage">
        <g id="Desktop-HD" sketch:type="MSArtboardGroup" transform="translate(-861.000000, -4371.000000)" fill="#4CAF50">
            <g id="8---Features" sketch:type="MSLayerGroup" transform="translate(103.000000, 4361.000000)">
                <path d="M796.011,19.072 C796.003,19.021 796.011,18.969 795.993,18.92 L792.719,10.478 C792.606,10.19 792.329,10 792.02,10 L762.024,10 C761.713,10 761.437,10.19 761.324,10.478 L758.051,18.92 C758.032,18.969 758.04,19.021 758.032,19.072 C758.02,19.123 758,19.172 758,19.226 L758,42.076 C758,42.49 758.336,42.826 758.75,42.826 L795.293,42.826 C795.707,42.826 796.043,42.49 796.043,42.076 L796.043,19.226 C796.043,19.172 796.022,19.123 796.011,19.072 L796.011,19.072 Z M779.289,11.5 L781.176,19.186 L781.176,27.858 L777.36,25.948 C777.149,25.843 776.901,25.843 776.687,25.948 L772.869,27.858 L772.869,19.141 L774.752,11.5 L779.289,11.5 L779.289,11.5 Z M794.543,41.326 L759.499,41.326 L759.499,19.976 L769.842,19.976 C770.256,19.976 770.592,19.64 770.592,19.226 C770.592,19.221 770.588,19.215 770.588,19.209 C770.588,19.203 770.592,19.197 770.592,19.191 C770.592,18.777 770.256,18.441 769.842,18.441 L759.846,18.441 L762.537,11.5 L773.205,11.5 L771.391,18.871 C771.375,18.929 771.369,18.99 771.369,19.051 L771.369,29.072 C771.369,29.332 771.504,29.573 771.725,29.71 C771.946,29.847 772.22,29.858 772.455,29.743 L777.024,27.458 L781.59,29.743 C781.696,29.796 781.811,29.822 781.926,29.822 C782.063,29.822 782.199,29.785 782.32,29.71 C782.54,29.573 782.676,29.332 782.676,29.072 L782.676,19.095 C782.676,19.035 782.669,18.975 782.655,18.917 L780.834,11.5 L791.506,11.5 L794.198,18.441 L784.203,18.441 C783.789,18.441 783.454,18.777 783.454,19.191 C783.454,19.197 783.456,19.203 783.457,19.209 C783.456,19.215 783.454,19.221 783.454,19.226 C783.454,19.64 783.789,19.976 784.203,19.976 L794.543,19.976 L794.543,41.326 L794.543,41.326 Z" id="Fill-45" sketch:type="MSShapeGroup"></path>
            </g>
        </g>
    </g>
</svg>