<?xml version="1.0" encoding="UTF-8" standalone="no"?>
<svg width="45px" height="32px" viewBox="0 0 45 32" version="1.1" xmlns="http://www.w3.org/2000/svg" xmlns:xlink="http://www.w3.org/1999/xlink" xmlns:sketch="http://www.bohemiancoding.com/sketch/ns">
    <!-- Generator: Sketch 3.4.2 (15857) - http://www.bohemiancoding.com/sketch -->
    <title>Fill 110</title>
    <desc>Created with Sketch.</desc>
    <defs></defs>
    <g id="Page-1" stroke="none" stroke-width="1" fill="none" fill-rule="evenodd" sketch:type="MSPage">
        <g id="Desktop-HD" sketch:type="MSArtboardGroup" transform="translate(-1179.000000, -4767.000000)" fill="#00AEDC">
            <g id="10---Contacto" sketch:type="MSLayerGroup" transform="translate(103.000000, 4758.000000)">
                <path d="M1097.699,19.017 L1097.699,9.843 C1097.699,9.539 1097.516,9.266 1097.235,9.15 C1097.176,9.125 1096.848,9 1096.334,9 C1095.828,9 1095.025,9.123 1094.066,9.721 L1077.613,20.555 C1076.543,21.262 1076,22.198 1076,23.337 C1076,24.551 1076.602,25.674 1077.635,26.355 L1094.025,36.438 C1094.893,37.093 1095.863,37.231 1096.523,37.231 C1096.859,37.231 1097.07,37.195 1097.07,37.195 C1097.43,37.132 1097.699,36.819 1097.699,36.454 L1097.699,27.516 C1116.213,27.832 1118.918,39.839 1119.025,40.357 C1119.098,40.707 1119.406,40.955 1119.758,40.955 C1119.783,40.955 1119.81,40.954 1119.835,40.951 C1120.219,40.913 1120.51,40.591 1120.51,40.206 C1120.51,21.352 1103.939,19.165 1097.699,19.017 L1097.699,19.017 Z M1116.432,32.966 C1113.419,29.793 1107.592,26.01 1096.949,26.01 C1096.535,26.01 1096.199,26.346 1096.199,26.76 L1096.199,35.713 C1095.83,35.672 1095.336,35.548 1094.871,35.2 L1078.439,25.09 C1077.851,24.701 1077.5,24.046 1077.5,23.337 C1077.5,22.708 1077.789,22.236 1078.439,21.807 L1094.875,10.985 C1095.431,10.638 1095.885,10.529 1096.199,10.505 L1096.199,19.758 C1096.199,20.172 1096.535,20.508 1096.949,20.508 C1112.769,20.508 1117.377,29.205 1118.601,35.749 C1118.045,34.867 1117.335,33.917 1116.432,32.966 L1116.432,32.966 Z" id="Fill-110" sketch:type="MSShapeGroup"></path>
            </g>
        </g>
    </g>
</svg>