<?xml version="1.0" encoding="UTF-8" standalone="no"?>
<svg width="42px" height="53px" viewBox="0 0 42 53" version="1.1" xmlns="http://www.w3.org/2000/svg" xmlns:xlink="http://www.w3.org/1999/xlink" xmlns:sketch="http://www.bohemiancoding.com/sketch/ns">
    <!-- Generator: Sketch 3.4.2 (15857) - http://www.bohemiancoding.com/sketch -->
    <title>Fill 199</title>
    <desc>Created with Sketch.</desc>
    <defs></defs>
    <g id="Page-1" stroke="none" stroke-width="1" fill="none" fill-rule="evenodd" sketch:type="MSPage">
        <g id="Desktop-HD" sketch:type="MSArtboardGroup" transform="translate(-538.000000, -4758.000000)" fill="#4CAF50">
            <g id="10---Contacto" sketch:type="MSLayerGroup" transform="translate(103.000000, 4758.000000)">
                <path d="M449.472003,14.1536831 C449.610003,14.2656831 449.776003,14.3206831 449.942003,14.3206831 C450.159003,14.3206831 450.377003,14.2246831 450.526003,14.0396831 L457.218003,5.72268307 C457.479003,5.39968307 457.428003,4.92768307 457.104003,4.66768307 C456.785003,4.40968307 456.311003,4.45968307 456.051003,4.78168307 L449.358003,13.0996831 C449.097003,13.4226831 449.149003,13.8946831 449.472003,14.1536831 L449.472003,14.1536831 Z M452.342003,16.5126831 C452.468003,16.7896831 452.740003,16.9536831 453.026003,16.9536831 C453.129003,16.9536831 453.235003,16.9326831 453.334003,16.8866831 L462.935003,12.5406831 C463.311003,12.3696831 463.479003,11.9256831 463.309003,11.5486831 C463.138003,11.1706831 462.694003,11.0036831 462.315003,11.1746831 L452.715003,15.5206831 C452.338003,15.6916831 452.170003,16.1356831 452.342003,16.5126831 L452.342003,16.5126831 Z M476.141003,43.4976831 L468.360003,36.2786831 C468.352003,36.2716831 468.343003,36.2636831 468.334003,36.2556831 C467.435003,35.4126831 465.953003,35.4556831 465.102003,36.3506831 L461.713003,39.9086831 C460.957003,40.7086831 459.832003,40.2056831 456.259003,37.4706831 C453.727003,35.5276831 451.246003,33.1916831 449.272003,30.8966831 C447.330003,28.6296831 446.862003,27.4406831 447.542003,26.7076831 L448.461003,25.9176831 L451.326003,23.1336831 C451.372003,23.0886831 451.412003,23.0366831 451.447003,22.9826831 C452.356003,21.7226831 450.943003,20.4466831 450.351003,19.9466831 C450.338003,19.9336831 450.326003,19.9206831 450.315003,19.9076831 C450.315003,19.9076831 442.843003,12.6356831 442.672003,12.4686831 C442.666003,12.4626831 442.660003,12.4576831 442.656003,12.4526831 C441.751003,11.6016831 440.469003,11.6426831 439.602003,12.5616831 L437.020003,15.3716831 L436.328003,16.1776831 C436.260003,16.2676831 429.764003,25.3416831 446.135003,41.1186831 C455.453003,50.1056831 462.443003,52.0856831 466.791003,52.0856831 C466.955003,52.0856831 467.116003,52.0826831 467.272003,52.0766831 C470.112003,51.9806831 471.963003,51.0126831 472.657003,50.2426831 L476.143003,46.6956831 C476.582003,46.2296831 476.821003,45.5946831 476.793003,44.9546831 C476.770003,44.3696831 476.535003,43.8496831 476.141003,43.4976831 L476.141003,43.4976831 Z M440.701003,13.5826831 C440.851003,13.4236831 441.014003,13.3436831 441.180003,13.3436831 C441.332003,13.3436831 441.485003,13.4106831 441.629003,13.5456831 L441.637003,13.5376831 C442.010003,13.9186831 443.431003,15.3026831 449.198003,20.9146831 C449.230003,20.9576831 449.268003,20.9956831 449.310003,21.0306831 C450.229003,21.8006831 450.237003,22.0806831 450.218003,22.1196831 L447.932003,24.3426831 C446.393003,22.8496831 440.430003,17.0636831 438.896003,15.5736831 L440.701003,13.5826831 L440.701003,13.5826831 Z M471.573003,49.2076831 C471.178003,49.6436831 469.762003,50.4906831 467.222003,50.5776831 C463.939003,50.6956831 456.957003,49.4726831 447.176003,40.0386831 C434.375003,27.7016831 435.871003,19.2816831 437.496003,17.1166831 L437.887003,16.6856831 C438.638003,17.4136831 440.772003,19.4856831 446.822003,25.3546831 L446.508003,25.6246831 C444.558003,27.7006831 446.884003,30.4146831 448.134003,31.8726831 C450.173003,34.2446831 452.735003,36.6546831 455.347003,38.6606831 C458.461003,41.0446831 460.921003,42.9296831 462.799003,40.9426831 L462.972003,40.7616831 C464.565003,42.2946831 470.073003,47.5956831 471.660003,49.1216831 L471.573003,49.2076831 L471.573003,49.2076831 Z M475.061003,45.6566831 L472.718003,48.0576831 C466.899003,42.4576831 464.776003,40.4156831 464.005003,39.6756831 L466.188003,37.3846831 C466.471003,37.0846831 466.984003,37.0636831 467.292003,37.3356831 C467.301003,37.3436831 467.309003,37.3506831 467.317003,37.3586831 L475.130003,44.6076831 C475.227003,44.6946831 475.288003,44.8436831 475.295003,45.0176831 C475.305003,45.2556831 475.217003,45.4916831 475.061003,45.6566831 L475.061003,45.6566831 Z M445.944003,11.7386831 C446.012003,11.7586831 446.080003,11.7676831 446.149003,11.7676831 C446.476003,11.7676831 446.776003,11.5526831 446.869003,11.2236831 L449.796003,0.954683067 C449.908003,0.556683067 449.678003,0.141683067 449.280003,0.0286830675 C448.880003,-0.0843169325 448.467003,0.146683067 448.352003,0.543683067 L445.426003,10.8126831 C445.314003,11.2106831 445.545003,11.6256831 445.944003,11.7386831 L445.944003,11.7386831 Z" id="Fill-199" sketch:type="MSShapeGroup"></path>
            </g>
        </g>
    </g>
</svg>