<?xml version="1.0" encoding="UTF-8" standalone="no"?>
<svg width="44px" height="43px" viewBox="0 0 44 43" version="1.1" xmlns="http://www.w3.org/2000/svg" xmlns:xlink="http://www.w3.org/1999/xlink" xmlns:sketch="http://www.bohemiancoding.com/sketch/ns">
    <!-- Generator: Sketch 3.4.2 (15857) - http://www.bohemiancoding.com/sketch -->
    <title>Box open 2</title>
    <desc>Created with Sketch.</desc>
    <defs></defs>
    <g id="Page-1" stroke="none" stroke-width="1" fill="none" fill-rule="evenodd" sketch:type="MSPage">
        <g id="Desktop-HD" sketch:type="MSArtboardGroup" transform="translate(-858.000000, -4766.000000)" fill="#DB383B">
            <g id="10---Contacto" sketch:type="MSLayerGroup" transform="translate(103.000000, 4758.000000)">
                <path d="M792.50208,23.5038989 L797.988048,17.9696989 C798.164209,17.7974989 798.246048,17.5510989 798.215531,17.3130989 C798.180854,17.0638989 798.03937,16.8510989 797.831306,16.7278989 L783.036531,8.10389889 C782.729983,7.92609889 782.345757,7.98069889 782.09608,8.23549889 L776.610112,13.7668989 L771.124144,8.23549889 C770.871693,7.98069889 770.487467,7.92609889 770.180919,8.10389889 L755.388919,16.7278989 C755.175306,16.8510989 755.033822,17.0638989 755.007467,17.3130989 C754.975564,17.5510989 755.053241,17.7974989 755.223854,17.9696989 L760.712596,23.5038989 L755.223854,29.0436989 C755.053241,29.2158989 754.974177,29.4622989 755.007467,29.7002989 C755.035209,29.9410989 755.175306,30.1566989 755.388919,30.2798989 L761.031628,33.5726989 L761.031628,40.7420989 C761.031628,41.0262989 761.182822,41.2838989 761.421402,41.4252989 L776.218951,50.0492989 C776.338241,50.1234989 776.474177,50.1528989 776.608725,50.1528989 C776.741886,50.1528989 776.876435,50.1234989 776.998499,50.0492989 L791.790499,41.4252989 C792.02908,41.2824989 792.180273,41.0262989 792.180273,40.7420989 L792.180273,33.5726989 L797.828531,30.2798989 C798.036596,30.1566989 798.17808,29.9410989 798.212757,29.7002989 C798.241886,29.4538989 798.161435,29.2158989 797.985273,29.0436989 L792.50208,23.5038989 L792.50208,23.5038989 Z M789.83608,23.5038989 L776.610112,31.2150989 L763.378596,23.5038989 L773.299112,17.7232989 L776.610112,15.7982989 L788.573822,22.7660989 L789.83608,23.5038989 L789.83608,23.5038989 Z M782.775757,9.77269889 L796.16679,17.5846989 L791.271725,22.5196989 L790.469983,22.0520989 L777.877919,14.7160989 L782.775757,9.77269889 L782.775757,9.77269889 Z M770.44308,9.77269889 L775.340919,14.7160989 L761.944338,22.5196989 L757.046499,17.5846989 L770.44308,9.77269889 L770.44308,9.77269889 Z M761.944338,24.4880989 L775.33537,32.2972989 L770.440306,37.2322989 L762.202338,32.4330989 L762.199564,32.4330989 L757.046499,29.4286989 L761.944338,24.4880989 L761.944338,24.4880989 Z M762.592112,34.4826989 L770.178144,38.9010989 C770.300209,38.9752989 770.436144,39.0074989 770.567919,39.0074989 C770.584564,39.0074989 770.59566,38.9878989 770.613693,38.9878989 C770.795402,38.9822989 770.979886,38.9192989 771.119983,38.7806989 L775.829177,34.0276989 L775.829177,48.0052989 L762.592112,40.2856989 L762.592112,34.4826989 L762.592112,34.4826989 Z M790.618402,40.2884989 L777.38966,47.9996989 L777.38966,34.0290989 L782.093306,38.7820989 C782.232015,38.9220989 782.410951,38.9766989 782.596822,38.9892989 C782.613467,38.9892989 782.628725,39.0088989 782.642596,39.0088989 C782.778531,39.0088989 782.910306,38.9766989 783.03237,38.9024989 L790.618402,34.4840989 L790.618402,40.2884989 L790.618402,40.2884989 Z M782.772983,37.2336989 L777.877919,32.2986989 L791.271725,24.4894989 L796.16679,29.4300989 L782.772983,37.2336989 L782.772983,37.2336989 Z" id="Box-open-2" sketch:type="MSShapeGroup"></path>
            </g>
        </g>
    </g>
</svg>